<svg width="17" height="18" viewBox="0 0 17 18" fill="none" xmlns="http://www.w3.org/2000/svg">
<g id="vuesax/twotone/call-calling">
<g id="call-calling">
<path id="Vector" d="M1.36325 13.4726C1.36325 13.727 1.41697 13.9884 1.53112 14.2428C1.64527 14.4971 1.79299 14.7374 1.98772 14.9635C2.31674 15.345 2.67933 15.6205 3.08892 15.7972C3.4918 15.9738 3.92826 16.0657 4.39829 16.0657C5.08318 16.0657 5.81508 15.8961 6.58727 15.5499C7.35946 15.2037 8.13165 14.7374 8.89712 14.1509C9.66931 13.5574 10.4012 12.9003 11.0995 12.1726C11.7911 11.4377 12.4156 10.6676 12.9729 9.86212C13.5235 9.05665 13.9667 8.25118 14.289 7.45277C14.6113 6.64729 14.7725 5.87715 14.7725 5.14233C14.7725 4.66187 14.6919 4.20261 14.5307 3.77868C14.3696 3.34768 14.1144 2.95201 13.7585 2.59873C13.3288 2.1536 12.8588 1.93457 12.3619 1.93457C12.1739 1.93457 11.9859 1.97696 11.818 2.06175C11.6434 2.14654 11.489 2.27372 11.3681 2.45742L9.81031 4.76786C9.68945 4.9445 9.60216 5.107 9.54173 5.26245C9.4813 5.41082 9.44772 5.5592 9.44772 5.69344C9.44772 5.86302 9.49472 6.03259 9.58873 6.1951C9.67602 6.35761 9.8036 6.52718 9.96475 6.69675L10.4751 7.25493C10.5489 7.33265 10.5825 7.42451 10.5825 7.53755C10.5825 7.59408 10.5758 7.64354 10.5624 7.70006C10.5422 7.75659 10.5221 7.79898 10.5086 7.84137C10.3878 8.07454 10.1796 8.37835 9.88418 8.74576C9.58202 9.11317 9.25971 9.48765 8.91055 9.86212C8.54796 10.2366 8.19879 10.5828 7.84291 10.9008C7.49375 11.2116 7.20502 11.4236 6.97672 11.5508C6.94315 11.5649 6.90286 11.5861 6.85586 11.6073C6.80214 11.6285 6.74842 11.6356 6.68799 11.6356C6.57384 11.6356 6.48655 11.5932 6.41269 11.5155L5.90237 10.9855C5.73451 10.8089 5.57335 10.6747 5.41892 10.5899C5.26448 10.491 5.11004 10.4415 4.94217 10.4415C4.8146 10.4415 4.6803 10.4698 4.53258 10.5333C4.38486 10.5969 4.23042 10.6888 4.06255 10.8089L1.83999 12.4693C1.66541 12.5965 1.54455 12.7449 1.47069 12.9215C1.40354 13.0981 1.36325 13.2748 1.36325 13.4726Z" stroke="#288E87" strokeWidth="1.5" strokeMiterlimit="10"/>
<path id="Vector_2" d="M3.69332 6.88115C3.69332 6.45721 4.00891 5.80718 4.47894 5.27727C4.90868 4.78974 5.47942 4.4082 6.04346 4.4082" stroke="#45CBC2" strokeWidth="1.5" strokeLinecap="round" strokeLinejoin="round"/>
<path id="Vector_3" d="M1.34318 6.88046C1.34318 4.14609 3.44488 1.93457 6.04346 1.93457" stroke="#45CBC2" strokeWidth="1.5" strokeLinecap="round" strokeLinejoin="round"/>
</g>
</g>
</svg>
