<svg width="25" height="24" viewBox="0 0 25 24" fill="none" xmlns="http://www.w3.org/2000/svg">
<rect width="25" height="24" fill="#1E1E1E"/>
<g id="Frame 26086488">
<rect width="1440" height="991" transform="translate(-706 -248)" fill="white"/>
<g id="Group 92">
<g id="Group 91">
<g id="Group 182">
<g id="Group 67">
<circle id="Ellipse 34" cx="27.5146" cy="27.5146" r="27.5146" transform="matrix(1 0 0 -1 -15.8372 39.0293)" fill="#288E87"/>
</g>
</g>
</g>
</g>
<g id="vuesax/twotone/calendar-2">
<g id="vuesax/twotone/calendar-2_2">
<g id="calendar-2">
<path id="Vector" d="M8.17529 2V5" stroke="white" strokeWidth="1.5" strokeMiterlimit="10" strokeLinecap="round" strokeLinejoin="round"/>
<path id="Vector_2" d="M16.1753 2V5" stroke="white" strokeWidth="1.5" strokeMiterlimit="10" strokeLinecap="round" strokeLinejoin="round"/>
<path id="Vector_3" d="M3.67529 9.08984H20.6753" stroke="white" strokeWidth="1.5" strokeMiterlimit="10" strokeLinecap="round" strokeLinejoin="round"/>
<path id="Vector_4" d="M21.1753 8.5V17C21.1753 20 19.6753 22 16.1753 22H8.17529C4.67529 22 3.17529 20 3.17529 17V8.5C3.17529 5.5 4.67529 3.5 8.17529 3.5H16.1753C19.6753 3.5 21.1753 5.5 21.1753 8.5Z" stroke="white" strokeWidth="1.5" strokeMiterlimit="10" strokeLinecap="round" strokeLinejoin="round"/>
<path id="Vector_5" d="M12.1708 13.7002H12.1798" stroke="white" strokeWidth="2" strokeLinecap="round" strokeLinejoin="round"/>
<path id="Vector_6" d="M8.4696 13.7002H8.47859" stroke="white" strokeWidth="2" strokeLinecap="round" strokeLinejoin="round"/>
<path id="Vector_7" d="M8.46973 16.7002H8.47871" stroke="white" strokeWidth="2" strokeLinecap="round" strokeLinejoin="round"/>
</g>
</g>
</g>
</g>
</svg>
