<svg width="91" height="126" viewBox="0 0 91 126" fill="none" xmlns="http://www.w3.org/2000/svg">
<path d="M3.08294 114.04C2.91494 114.508 2.68694 115.204 2.75894 115.72C2.87894 116.476 4.01894 116.968 6.26294 116.968C9.22694 116.956 10.2829 116.296 10.8469 114.652L11.8549 114.772C11.4229 116.128 11.6389 116.836 12.5989 116.836L12.6709 117.496L12.5989 118.156C11.6749 118.156 10.9309 117.58 10.7989 116.656C9.83894 117.832 8.36294 118.264 6.29894 118.276C3.47894 118.3 1.84694 117.448 1.70294 115.924C1.63094 115.156 1.88294 114.196 2.14694 113.584L3.08294 114.04ZM4.64294 113.692C4.93094 113.404 5.23094 113.116 5.50694 112.828C5.80694 113.116 6.09494 113.404 6.38294 113.692C6.09494 113.992 5.80694 114.28 5.50694 114.568C5.23094 114.28 4.93094 113.992 4.64294 113.692ZM6.75494 113.692C7.04294 113.404 7.34294 113.116 7.61894 112.828C7.91894 113.116 8.20694 113.404 8.49494 113.692C8.20694 113.992 7.91894 114.28 7.61894 114.568C7.34294 114.28 7.04294 113.992 6.75494 113.692ZM12.4712 118.156V116.836H12.6153C13.1073 116.836 13.5753 116.824 13.9953 116.812C13.6833 116.452 13.4793 115.996 13.4553 115.48C13.3593 114.16 14.4033 112.972 15.7233 112.828C16.5873 112.732 17.4033 113.128 18.0153 113.668L17.5593 114.556C17.0433 114.28 16.4433 114.064 15.8313 114.136C14.9913 114.232 14.4393 114.808 14.4753 115.384C14.5113 116.056 15.3153 116.656 16.3473 116.632C17.0673 116.536 17.6673 116.392 18.2073 116.188L18.4713 117.352C17.2233 117.868 15.5553 118.156 12.6153 118.156H12.4712ZM20.7317 109.624C20.8877 110.728 20.9717 113.74 20.9477 115.108C20.9237 116.404 21.0197 116.836 22.1357 116.836H22.1957L22.2677 117.496L22.1957 118.156H22.1357C20.3477 118.156 19.8197 117.196 19.8437 115.252C19.8437 113.716 19.7597 111.016 19.5917 109.876L20.7317 109.624ZM28.8006 116.836C29.3646 116.836 29.6526 116.5 29.6526 115.936C29.6526 115.348 29.1486 114.04 29.0046 113.716L29.9766 113.176C30.2166 113.68 30.7086 115.012 30.7086 115.96C30.7086 117.172 29.9286 118.144 28.8246 118.156H28.7766C27.9726 118.144 27.4446 117.712 27.2286 116.98C26.8566 117.664 26.2806 118.156 25.5846 118.156H25.5366C24.8166 118.156 24.2886 117.7 24.1566 117.004C23.6406 117.76 22.9566 118.156 22.1526 118.156H22.1046L22.0326 117.496L22.1046 116.836H22.1646C22.7406 116.836 23.2926 116.548 23.5566 116.152C23.9286 115.672 24.0966 114.988 24.1806 114.664L25.1886 114.772C25.0926 115.12 24.9606 115.612 24.9366 116.032C24.9246 116.56 25.1046 116.836 25.5606 116.836H25.5846C26.0646 116.836 26.4006 116.548 26.6766 116.056C26.9166 115.6 27.0366 114.88 27.0846 114.556L28.0926 114.604C28.0446 114.856 27.9486 115.396 27.9486 115.792C27.9486 116.464 28.1886 116.836 28.8006 116.836ZM35.1806 120.46C37.4606 119.968 38.6726 119.236 38.9366 118.12C37.7486 118.336 36.1766 118.132 35.6606 117.088C35.0006 115.744 36.0686 113.356 37.5206 113.356C39.0206 113.356 39.9566 115.6 39.9566 117.496C39.9566 119.584 38.3126 121.084 35.5766 121.624L35.1806 120.46ZM36.5366 116.356C36.8726 116.848 37.9766 116.98 38.9366 116.86C38.7566 115.756 38.2646 114.676 37.4966 114.592C36.7886 114.508 36.1886 115.828 36.5366 116.356ZM44.1367 120.496C45.7207 119.908 46.9087 118.816 46.9087 118.024C46.9087 117.532 46.4767 115.84 46.2727 115.048L47.3287 114.64C47.6887 115.756 47.9527 117.148 47.9527 118.024C47.9527 119.536 46.5487 120.916 44.6527 121.624L44.1367 120.496ZM45.6607 112.54C45.9727 112.216 46.2847 111.904 46.5967 111.604C46.9087 111.904 47.2207 112.216 47.5327 112.54L46.5967 113.476C46.2847 113.164 45.9727 112.852 45.6607 112.54ZM48.8095 120.46C51.0895 119.968 52.3015 119.236 52.5655 118.12C51.3775 118.336 49.8055 118.132 49.2895 117.088C48.6295 115.744 49.6975 113.356 51.1495 113.356C52.6495 113.356 53.5855 115.6 53.5855 117.496C53.5855 119.584 51.9415 121.084 49.2055 121.624L48.8095 120.46ZM50.1655 116.356C50.5015 116.848 51.6055 116.98 52.5655 116.86C52.3855 115.756 51.8935 114.676 51.1255 114.592C50.4175 114.508 49.8175 115.828 50.1655 116.356ZM53.7109 120.496C55.2949 119.908 56.4829 118.816 56.4829 118.024C56.4829 117.532 56.0509 115.84 55.8469 115.048L56.9029 114.64C57.2629 115.756 57.5269 117.148 57.5269 118.024C57.5269 119.536 56.1229 120.916 54.2269 121.624L53.7109 120.496ZM63.9471 115.66C63.5991 116.392 63.2991 117.22 63.2751 118.024C63.2511 119.536 64.1751 120.304 65.8191 120.304C67.7751 120.304 68.6751 119.116 68.6751 118.024C68.6751 117.232 68.2191 115.768 67.9791 115.06L68.9991 114.568C69.1431 114.976 69.2631 115.36 69.3591 115.72C69.6231 116.536 69.8751 116.836 70.4631 116.836H70.5351L70.6071 117.496L70.5351 118.156H70.4631C70.1631 118.156 69.9231 118.06 69.7071 117.892V118.024C69.7071 119.836 68.2911 121.624 65.8191 121.624C63.4071 121.624 62.1111 120.004 62.2071 118.024C62.2551 117.004 62.6871 115.888 63.0111 115.228L63.9471 115.66ZM65.1351 114.7C65.4471 114.376 65.7591 114.064 66.0711 113.764C66.3831 114.064 66.6951 114.376 67.0071 114.7L66.0711 115.636C65.7591 115.324 65.4471 115.012 65.1351 114.7ZM70.4087 118.156V116.836H70.5048C72.4008 116.836 72.8568 116.596 73.0248 116.044C73.1448 115.648 73.0368 114.988 72.9408 114.352L73.9368 114.148C74.1048 114.952 74.1048 116.008 74.1048 116.092C74.1888 116.548 74.5128 116.836 75.1248 116.836H75.2088L75.2808 117.496L75.2088 118.156H75.1248C74.4408 118.156 73.8888 117.784 73.5648 117.244C73.1568 117.916 72.2928 118.156 70.5048 118.156H70.4087ZM70.5048 120.136C70.7928 119.848 71.0928 119.56 71.3688 119.272C71.6688 119.56 71.9568 119.848 72.2448 120.136C71.9568 120.436 71.6688 120.724 71.3688 121.012C71.0928 120.724 70.7928 120.436 70.5048 120.136ZM72.6288 120.136C72.9168 119.848 73.2168 119.56 73.4928 119.272C73.7928 119.56 74.0808 119.848 74.3688 120.136C74.0808 120.436 73.7928 120.724 73.4928 121.012C73.2168 120.724 72.9168 120.436 72.6288 120.136ZM75.0845 118.156V116.836H75.1805C77.0765 116.836 77.5325 116.596 77.7005 116.044C77.8205 115.648 77.7125 114.988 77.6165 114.352L78.6125 114.148C78.7805 114.952 78.7805 116.008 78.7805 116.092C78.8645 116.548 79.1885 116.836 79.8005 116.836H79.8845L79.9565 117.496L79.8845 118.156H79.8005C79.1165 118.156 78.5645 117.784 78.2405 117.244C77.8325 117.916 76.9685 118.156 75.1805 118.156H75.0845ZM75.1805 120.136C75.4685 119.848 75.7685 119.56 76.0445 119.272C76.3445 119.56 76.6325 119.848 76.9205 120.136C76.6325 120.436 76.3445 120.724 76.0445 121.012C75.7685 120.724 75.4685 120.436 75.1805 120.136ZM77.3045 120.136C77.5925 119.848 77.8925 119.56 78.1685 119.272C78.4685 119.56 78.7565 119.848 79.0445 120.136C78.7565 120.436 78.4685 120.724 78.1685 121.012C77.8925 120.724 77.5925 120.436 77.3045 120.136ZM79.7603 118.156V116.836H80.0363C80.8283 116.836 81.5003 116.74 82.0763 116.596C81.5603 116.116 81.0443 115.516 80.4683 114.784L80.5163 113.92C82.0043 112.432 85.4363 112.624 85.8923 114.148C86.0603 114.796 85.4963 115.78 84.4763 116.608C84.9803 116.764 85.5443 116.836 86.2043 116.836H86.5283L86.6003 117.496L86.5283 118.156H86.2043C84.9563 118.156 84.0203 117.94 83.1683 117.424C82.2683 117.868 81.2003 118.156 80.0363 118.156H79.7603ZM81.6803 114.544C82.2563 115.216 82.7843 115.72 83.3603 116.092C84.3443 115.54 84.7643 114.856 84.8843 114.556C84.5843 113.932 82.6763 113.788 81.6803 114.544ZM86.4048 118.156V116.836H86.9088C88.6368 116.836 89.2008 116.524 89.2008 115.864C89.1888 115.348 88.6968 114.004 88.5528 113.704L89.5488 113.164C89.7888 113.668 90.2688 114.988 90.2568 115.888C90.2568 117.364 89.2128 118.156 87.0888 118.156H86.4048ZM86.6808 111.628C86.9688 111.34 87.2688 111.052 87.5448 110.764C87.8448 111.052 88.1328 111.34 88.4208 111.628C88.1328 111.928 87.8448 112.216 87.5448 112.504C87.2688 112.216 86.9688 111.928 86.6808 111.628ZM88.7928 111.628C89.0808 111.34 89.3808 111.052 89.6568 110.764C89.9568 111.052 90.2448 111.34 90.5328 111.628C90.2448 111.928 89.9568 112.216 89.6568 112.504C89.3808 112.216 89.0808 111.928 88.7928 111.628Z" fill="#288E87"/>
<circle cx="27.5146" cy="27.5146" r="27.5146" transform="matrix(1 0 0 -1 19.1628 55.0293)" fill="#288E87"/>
<path d="M47.9008 71.8028C47.532 72.942 45.9212 72.9445 45.5489 71.8065L38.9205 51.5446C38.6592 50.7459 39.2535 49.9248 40.0939 49.9235L53.2876 49.9029C54.128 49.9016 54.7249 50.7208 54.4661 51.5203L47.9008 71.8028Z" fill="#288E87"/>
<circle cx="46.1824" cy="92.3406" r="7.34141" stroke="#288E87" stroke-width="0.564724"/>
<circle cx="46.1825" cy="92.3402" r="4.80015" fill="#288E87"/>
</svg>
