<svg width="56" height="76" viewBox="0 0 56 76" fill="none" xmlns="http://www.w3.org/2000/svg">
<rect width="56" height="76" fill="#1E1E1E"/>
<g id="Frame 26086488">
<rect width="1440" height="991" transform="translate(-690 -232)" fill="white"/>
<g id="Group 92">
<g id="Group 91">
<g id="Group 182">
<g id="Group 67">
<circle id="Ellipse 34" cx="27.5146" cy="27.5146" r="27.5146" transform="matrix(1 0 0 -1 0.162842 55.0293)" fill="#288E87"/>
<path id="Polygon 4" d="M28.9008 71.8028C28.532 72.942 26.9212 72.9445 26.5489 71.8065L19.9205 51.5446C19.6592 50.7459 20.2535 49.9248 21.0939 49.9235L34.2876 49.9029C35.128 49.9016 35.7249 50.7208 35.4661 51.5203L28.9008 71.8028Z" fill="#288E87"/>
</g>
</g>
</g>
</g>
<g id="vuesax/twotone/calendar-2">
<g id="vuesax/twotone/calendar-2_2">
<g id="calendar-2">
<path id="Vector" d="M24.1753 18V21" stroke="white" strokeWidth="1.5" stroke-miterlimit="10" strokeLinecap="round" strokeLinejoin="round"/>
<path id="Vector_2" d="M32.1753 18V21" stroke="white" strokeWidth="1.5" stroke-miterlimit="10" strokeLinecap="round" strokeLinejoin="round"/>
<path id="Vector_3" d="M19.6753 25.0898H36.6753" stroke="white" strokeWidth="1.5" stroke-miterlimit="10" strokeLinecap="round" strokeLinejoin="round"/>
<path id="Vector_4" d="M37.1753 24.5V33C37.1753 36 35.6753 38 32.1753 38H24.1753C20.6753 38 19.1753 36 19.1753 33V24.5C19.1753 21.5 20.6753 19.5 24.1753 19.5H32.1753C35.6753 19.5 37.1753 21.5 37.1753 24.5Z" stroke="white" strokeWidth="1.5" stroke-miterlimit="10" strokeLinecap="round" strokeLinejoin="round"/>
<path id="Vector_5" d="M28.1708 29.7002H28.1798" stroke="white" strokeWidth="2" strokeLinecap="round" strokeLinejoin="round"/>
<path id="Vector_6" d="M24.4696 29.7002H24.4786" stroke="white" strokeWidth="2" strokeLinecap="round" strokeLinejoin="round"/>
<path id="Vector_7" d="M24.4697 32.7002H24.4787" stroke="white" strokeWidth="2" strokeLinecap="round" strokeLinejoin="round"/>
</g>
</g>
</g>
</g>
</svg>
