<svg width="37" height="97" viewBox="0 0 37 97" fill="none" xmlns="http://www.w3.org/2000/svg">
<path opacity="0.6" d="M1.62766 86.1492C1.41166 86.7012 1.20766 87.3852 1.27966 87.9492C1.41166 88.8732 2.61166 89.4132 4.95166 89.4132C7.81966 89.4132 9.16366 88.6332 9.69166 86.9292L10.4237 87.0132C9.95566 88.4052 10.2197 89.3052 11.3477 89.3052L11.3957 89.7372L11.3477 90.1572C10.3517 90.1572 9.63166 89.5452 9.58366 88.5252C8.70766 89.7492 7.15966 90.2532 5.01166 90.2652C2.27566 90.2772 0.691664 89.5092 0.547664 88.0572C0.475664 87.2892 0.715664 86.3892 0.967664 85.8252L1.62766 86.1492ZM3.55966 86.1972C3.78766 85.9572 4.03966 85.7172 4.27966 85.4652C4.51966 85.7172 4.75966 85.9572 4.99966 86.1972L4.27966 86.9172C4.03966 86.6772 3.78766 86.4372 3.55966 86.1972ZM5.52766 86.1972C5.75566 85.9572 6.00766 85.7172 6.24766 85.4652C6.48766 85.7172 6.72766 85.9572 6.96766 86.1972L6.24766 86.9172C6.00766 86.6772 5.75566 86.4372 5.52766 86.1972ZM11.2102 90.1572V89.3172H12.3142C14.5222 89.3052 16.2502 88.6092 17.7622 87.8052C17.9662 87.6852 18.1822 87.5892 18.3862 87.4932C17.7742 87.3732 17.2222 87.1572 16.6582 86.8572C15.9742 86.5092 15.3742 86.2332 14.7262 86.2332C13.9942 86.2212 13.4062 86.7252 13.1182 87.3012L12.5902 86.9532C13.0822 85.9572 13.8502 85.4172 14.7502 85.4292C15.4942 85.4412 16.1062 85.7532 16.9342 86.1732C17.6782 86.5572 18.3502 86.9052 19.2742 87.0972L19.2982 87.8412C18.9622 87.9492 18.6142 88.1292 18.0502 88.4292C16.4422 89.2812 14.6302 90.1572 12.3142 90.1572H11.2102ZM13.8502 83.6052L14.6062 82.8492C14.8582 83.1012 15.1102 83.3532 15.3622 83.6052L14.6062 84.3612C14.3542 84.1092 14.1022 83.8572 13.8502 83.6052ZM20.6331 90.0972C20.7891 88.5492 20.6331 83.0172 20.5011 82.1412L21.2571 81.9852C21.4011 82.8612 21.5691 88.4652 21.3891 90.1932L20.6331 90.0972ZM23.0416 88.7652C23.3656 88.9572 23.9896 89.3772 25.1536 89.3772C26.1496 89.3772 26.7256 89.0532 26.8816 88.7292C27.1936 88.0452 26.4856 86.6532 24.4456 85.1052L24.8776 84.3732C27.0136 86.0172 28.0816 87.8412 27.5056 89.1132C27.1936 89.8092 26.3056 90.1932 25.2136 90.1932C23.8216 90.1932 23.0056 89.6772 22.6696 89.3892L23.0416 88.7652ZM31.7155 90.1572C31.3675 90.1572 31.0915 90.0612 30.8635 89.8932C30.8755 90.0132 30.8755 90.1212 30.8755 90.2172C30.8755 91.6092 29.4715 93.0012 27.6955 93.5772L27.3955 92.8332C28.9555 92.3412 30.1435 91.1652 30.1435 90.2172C30.1435 89.7132 29.8195 88.2972 29.5315 87.1692L30.2635 86.9052C30.3715 87.2652 30.4795 87.6732 30.5635 88.0692C30.8035 88.9692 31.1155 89.3052 31.7155 89.3172H31.7875L31.8355 89.7372L31.7875 90.1572H31.7155ZM31.7194 90.1572L31.6714 89.7372L31.7194 89.3172H32.2954C34.0954 89.3172 34.7554 88.9332 34.7434 88.1412C34.7434 87.5292 34.2874 86.2692 34.1074 85.8612L34.7914 85.5012C35.0314 86.0172 35.4994 87.3132 35.4874 88.1532C35.4754 89.4732 34.4674 90.1572 32.3794 90.1572H31.7194ZM31.8514 91.8132C32.0914 91.5732 32.3314 91.3332 32.5714 91.0812C32.8234 91.3332 33.0514 91.5732 33.3034 91.8132C33.0514 92.0532 32.8234 92.2932 32.5714 92.5332L31.8514 91.8132ZM32.9674 93.0252L33.6154 92.3652C33.8314 92.5812 34.0474 92.8092 34.2634 93.0252C34.0474 93.2412 33.8314 93.4572 33.6154 93.6852C33.3994 93.4572 33.1834 93.2412 32.9674 93.0252ZM33.9274 91.8132C34.1674 91.5732 34.4074 91.3332 34.6474 91.0812C34.8994 91.3332 35.1274 91.5732 35.3794 91.8132C35.1274 92.0532 34.8994 92.2932 34.6474 92.5332L33.9274 91.8132Z" fill="#288E87"/>
<circle cx="18.741" cy="64.0046" r="7.34141" stroke="#83DCD6" stroke-width="0.564724"/>
<circle cx="18.7411" cy="64.0052" r="4.51779" fill="#83DCD6" stroke="#83DCD6" stroke-width="0.564724"/>
<circle cx="18.9315" cy="17.7562" r="17.7562" fill="#83DCD6"/>
<path d="M19.0305 43.7155C18.7925 44.4507 17.753 44.4523 17.5127 43.7179L13.2351 30.6421C13.0665 30.1267 13.4501 29.5968 13.9924 29.596L22.5068 29.5827C23.0491 29.5819 23.4343 30.1106 23.2673 30.6265L19.0305 43.7155Z" fill="#83DCD6"/>
</svg>
