<svg width="280" height="301" viewBox="0 0 280 301" fill="none" xmlns="http://www.w3.org/2000/svg">
<g clip-path="url(#clip0_767_23741)">
<path d="M220.658 0.517578C224.413 2.78541 228.158 5.05324 231.913 7.33142C232.221 7.51782 232.509 7.72493 232.916 7.99417C232.32 8.31518 232.052 7.94239 231.774 7.7767C227.979 5.50887 224.195 3.23069 220.41 0.942149C220.211 0.817884 220.023 0.662554 219.834 0.517578H220.658Z" fill="white" stroke="#D6F3F1" stroke-miterlimit="10"/>
<path d="M43.2102 0.517578C46.965 2.78541 50.7099 5.05324 54.4646 7.33142C54.7726 7.51782 55.0606 7.72493 55.4679 7.99417C54.8719 8.31518 54.6037 7.94239 54.3256 7.7767C50.5311 5.50887 46.7465 3.23069 42.9619 0.942149C42.7632 0.817884 42.5745 0.662554 42.3857 0.517578H43.2102Z" fill="white" stroke="#D6F3F1" stroke-miterlimit="10"/>
<path d="M131.934 0.517578C135.689 2.78541 139.433 5.05324 143.188 7.33142C143.496 7.51782 143.784 7.72493 144.192 7.99417C143.596 8.31518 143.327 7.94239 143.049 7.7767C139.255 5.50887 135.47 3.23069 131.686 0.942149C131.487 0.817884 131.298 0.662554 131.109 0.517578H131.934Z" fill="white" stroke="#D6F3F1" stroke-miterlimit="10"/>
<path d="M98.6674 0.517578C98.4488 0.672909 98.2303 0.84895 98.0018 0.993926C94.2769 3.24104 90.5519 5.48816 86.8169 7.73528C86.509 7.92168 86.1911 8.08737 85.7441 8.33589C85.7938 7.63173 86.2209 7.55924 86.4991 7.39355C89.4791 5.58136 92.4789 3.78988 95.4589 1.98804C96.2536 1.5117 97.0482 1.00428 97.833 0.517578H98.6574H98.6674Z" fill="white" stroke="#D6F3F1" stroke-miterlimit="10"/>
<path d="M187.382 0.517578C187.164 0.672909 186.945 0.84895 186.717 0.993926C182.992 3.24104 179.267 5.48816 175.532 7.73528C175.224 7.92168 174.906 8.08737 174.459 8.33589C174.509 7.63173 174.936 7.55924 175.214 7.39355C178.194 5.58136 181.194 3.78988 184.174 1.98804C184.968 1.5117 185.763 1.00428 186.548 0.517578H187.372H187.382Z" fill="white" stroke="#D6F3F1" stroke-miterlimit="10"/>
<path d="M276.106 0.517578C275.887 0.672909 275.669 0.84895 275.44 0.993926C271.715 3.24104 267.99 5.48816 264.255 7.73528C263.947 7.92168 263.63 8.08737 263.183 8.33589C263.232 7.63173 263.659 7.55924 263.938 7.39355C266.918 5.58136 269.917 3.78988 272.897 1.98804C273.692 1.5117 274.487 1.00428 275.271 0.517578H276.096H276.106Z" fill="white" stroke="#D6F3F1" stroke-miterlimit="10"/>
<path d="M0.49707 241.591C0.745403 241.674 1.02354 241.716 1.252 241.85C4.30153 243.673 7.35105 245.506 10.3906 247.349C10.6092 247.484 10.7979 247.66 11.076 247.887C10.5098 248.126 10.2416 247.773 9.94364 247.597C7.13252 245.92 4.32139 244.222 1.51027 242.534C1.18247 242.337 0.844736 242.182 0.507004 242.016V241.591H0.49707Z" fill="white" stroke="#D6F3F1" stroke-miterlimit="10"/>
<path d="M0.49707 28.353C0.745403 28.4359 1.02354 28.4773 1.252 28.6119C4.30153 30.4345 7.35105 32.2674 10.3906 34.1106C10.6092 34.2452 10.7979 34.4213 11.076 34.6491C10.5098 34.8873 10.2416 34.5352 9.94364 34.3592C7.13252 32.6816 4.32139 30.9833 1.51027 29.2954C1.18247 29.0986 0.844736 28.9433 0.507004 28.7776V28.353H0.49707Z" fill="white" stroke="#D6F3F1" stroke-miterlimit="10"/>
<path d="M0.496261 165.593C1.68826 164.91 2.89019 164.226 4.07225 163.522C6.05891 162.342 8.03564 161.14 10.0223 159.96C10.2905 159.805 10.5388 159.442 11.0057 159.742C10.807 159.918 10.658 160.095 10.4693 160.208C7.37011 162.083 4.26098 163.957 1.15186 165.811C0.953193 165.925 0.714794 165.956 0.486328 166.018V165.593H0.496261Z" fill="white" stroke="#D6F3F1" stroke-miterlimit="10"/>
<path d="M0.496261 58.9633C1.68826 58.2799 2.89019 57.5964 4.07225 56.8923C6.05891 55.7118 8.03564 54.5105 10.0223 53.33C10.2905 53.1747 10.5289 52.8123 11.0057 53.1126C10.807 53.2886 10.658 53.4646 10.4693 53.5786C7.37011 55.4529 4.26098 57.3272 1.15186 59.1808C0.953193 59.2947 0.714794 59.3258 0.486328 59.3879V58.9633H0.496261Z" fill="white" stroke="#D6F3F1" stroke-miterlimit="10"/>
<path d="M0.496261 272.212C1.68826 271.528 2.89019 270.845 4.07225 270.141C6.05891 268.96 8.03564 267.759 10.0223 266.579C10.2905 266.423 10.5289 266.061 11.0057 266.361C10.807 266.537 10.658 266.713 10.4693 266.827C7.37011 268.701 4.26098 270.576 1.15186 272.429C0.953193 272.543 0.714794 272.574 0.486328 272.636V272.212H0.496261Z" fill="white" stroke="#D6F3F1" stroke-miterlimit="10"/>
<path d="M0.49707 81.6626C0.745403 81.7454 1.02354 81.7869 1.252 81.9215C4.30153 83.744 7.35105 85.5769 10.3906 87.4202C10.6092 87.5548 10.7979 87.7309 11.0462 87.938C10.5496 88.2383 10.3012 87.8862 10.033 87.7309C7.19212 86.0326 4.35119 84.3239 1.51027 82.6153C1.18247 82.4185 0.844736 82.2632 0.507004 82.0975V81.673L0.49707 81.6626Z" fill="white" stroke="#D6F3F1" stroke-miterlimit="10"/>
<path d="M0.49707 134.972C0.745403 135.055 1.02354 135.096 1.252 135.231C4.30153 137.054 7.35105 138.887 10.3906 140.73C10.6092 140.864 10.7979 141.04 11.0462 141.248C10.5496 141.548 10.3012 141.196 10.033 141.04C7.19212 139.342 4.35119 137.633 1.51027 135.925C1.18247 135.728 0.844736 135.573 0.507004 135.407V134.983L0.49707 134.972Z" fill="white" stroke="#D6F3F1" stroke-miterlimit="10"/>
<path d="M0.496261 112.273C1.68826 111.589 2.89019 110.906 4.07225 110.202C6.05891 109.021 8.03564 107.82 10.0223 106.64C10.2905 106.484 10.5289 106.122 11.0057 106.422C10.807 106.598 10.658 106.774 10.4693 106.888C7.37011 108.762 4.26098 110.637 1.15186 112.49C0.953193 112.604 0.714794 112.635 0.486328 112.697V112.273H0.496261Z" fill="white" stroke="#D6F3F1" stroke-miterlimit="10"/>
<path d="M0.496261 218.903C0.863794 218.716 1.23133 218.54 1.58892 218.323C4.40005 216.635 7.21117 214.947 10.0223 213.259C10.2905 213.093 10.5488 212.783 11.0355 213.021C10.807 213.218 10.658 213.404 10.4693 213.518C7.37011 215.392 4.26098 217.266 1.15186 219.12C0.953193 219.234 0.714794 219.265 0.486328 219.327V218.903H0.496261Z" fill="white" stroke="#D6F3F1" stroke-miterlimit="10"/>
<path d="M0.49707 188.282C0.745403 188.365 1.02354 188.406 1.252 188.541C4.30153 190.363 7.35105 192.196 10.3906 194.039C10.6092 194.174 10.7979 194.35 11.076 194.578C10.5098 194.826 10.2416 194.464 9.94364 194.288C7.13252 192.61 4.32139 190.912 1.51027 189.224C1.18247 189.027 0.844736 188.872 0.507004 188.706V188.282H0.49707Z" fill="white" stroke="#D6F3F1" stroke-miterlimit="10"/>
<path d="M0.49707 5.65385C0.864603 5.46745 1.24207 5.29141 1.58973 5.07395C4.10286 3.56206 6.61599 2.03982 9.11918 0.517578H9.94364C9.36751 0.890372 8.80131 1.27352 8.22518 1.6256C5.99019 2.98216 3.75519 4.32836 1.51027 5.6642C1.20233 5.8506 0.834803 5.9438 0.49707 6.08878V5.6642V5.65385Z" fill="white" stroke="#D6F3F1" stroke-miterlimit="10"/>
<path d="M0.49707 294.9C0.715603 294.973 0.963936 294.994 1.1626 295.108C3.82473 296.702 6.48685 298.307 9.14898 299.902C9.22845 299.954 9.29798 300.037 9.39731 300.12C8.96025 300.492 8.64238 300.119 8.33445 299.943C6.04979 298.587 3.78499 297.21 1.50033 295.843C1.17254 295.646 0.834803 295.491 0.49707 295.325V294.9Z" fill="white" stroke="#D6F3F1" stroke-miterlimit="10"/>
<path d="M218.831 87.9587C218.871 87.8758 218.891 87.7412 218.96 87.6998C223.45 84.9867 227.94 82.2943 232.43 79.5915C232.499 79.5501 232.609 79.6019 232.688 79.6122C232.708 79.6744 232.728 79.7054 232.728 79.7468C232.728 79.7779 232.738 79.84 232.728 79.8504C228.397 82.4807 224.076 85.1109 219.745 87.7412C219.536 87.8655 219.328 87.9794 219.109 88.0829C219.06 88.1036 218.98 88.0622 218.92 88.0415C218.891 88.0311 218.871 88.0001 218.831 87.9587Z" fill="white" stroke="#D6F3F1" stroke-miterlimit="10"/>
<path d="M85.6945 26.4995C86.6282 26.5099 99.0747 34.0072 99.6707 34.6803C99.2336 34.9184 98.9654 34.556 98.6773 34.38C95.9755 32.7645 93.2835 31.1387 90.5817 29.5233C89.2208 28.7052 87.85 27.8871 86.4892 27.0587C86.211 26.893 85.9528 26.6859 85.6846 26.4995H85.6945Z" fill="white" stroke="#D6F3F1" stroke-miterlimit="10"/>
<path d="M218.781 266.247C219.01 266.268 219.169 266.247 219.298 266.309C221.314 267.283 232.3 274.086 232.787 274.697C232.608 274.697 232.479 274.738 232.38 274.697C230.91 274.045 219.238 266.827 218.781 266.257V266.247Z" fill="white" stroke="#D6F3F1" stroke-miterlimit="10"/>
<path d="M130.116 159.659C130.246 159.639 130.365 159.577 130.424 159.608C134.934 162.31 139.434 165.024 143.934 167.737C143.993 167.768 143.993 167.913 144.033 168.037C143.904 168.058 143.785 168.13 143.725 168.089C139.215 165.386 134.715 162.673 130.216 159.949C130.156 159.908 130.156 159.773 130.106 159.649L130.116 159.659Z" fill="white" stroke="#D6F3F1" stroke-miterlimit="10"/>
<path d="M99.7206 159.898C95.201 162.611 90.6813 165.334 86.1617 168.047C86.0623 168.11 85.9233 168.089 85.7246 167.944C85.8736 167.799 86.0127 167.623 86.1815 167.509C90.5621 164.64 98.9359 159.763 99.6213 159.67C99.6511 159.742 99.6809 159.815 99.7206 159.887V159.898Z" fill="white" stroke="#D6F3F1" stroke-miterlimit="10"/>
<path d="M41.3623 159.814C42.1967 159.794 54.6133 167.239 55.3285 167.985C54.9411 168.254 54.6928 167.912 54.4345 167.767C51.3155 165.903 48.2064 164.029 45.0972 162.155C44.0642 161.533 43.0212 160.912 41.9881 160.28C41.7696 160.146 41.5709 159.97 41.3623 159.814Z" fill="white" stroke="#D6F3F1" stroke-miterlimit="10"/>
<path d="M188.455 266.216C187.948 266.869 177.359 273.424 174.935 274.635C174.806 274.697 174.647 274.687 174.419 274.718C174.935 274.045 184.65 268.018 187.819 266.361C187.978 266.278 188.167 266.278 188.445 266.216H188.455Z" fill="white" stroke="#D6F3F1" stroke-miterlimit="10"/>
<path d="M130.086 266.402C131.03 266.464 143.476 273.972 144.152 274.759C143.784 274.656 143.566 274.635 143.397 274.542C139.125 271.984 134.864 269.416 130.593 266.837C130.404 266.723 130.245 266.547 130.076 266.402H130.086Z" fill="white" stroke="#D6F3F1" stroke-miterlimit="10"/>
<path d="M85.7443 274.666C85.784 274.542 85.784 274.408 85.8436 274.366C90.3434 271.653 94.8432 268.94 99.3529 266.237C99.4125 266.196 99.5417 266.268 99.6609 266.289C99.6211 266.413 99.6211 266.548 99.5516 266.589C95.0518 269.313 90.552 272.015 86.0423 274.729C85.9827 274.77 85.8635 274.698 85.7344 274.677L85.7443 274.666Z" fill="white" stroke="#D6F3F1" stroke-miterlimit="10"/>
<path d="M55.3181 274.656C55.189 274.687 55.0698 274.749 55.0102 274.718C50.5004 272.015 46.0007 269.302 41.5009 266.589C41.4413 266.547 41.4313 266.413 41.3916 266.289C41.5108 266.268 41.6399 266.195 41.6995 266.226C46.2093 268.929 50.709 271.642 55.2088 274.355C55.2684 274.397 55.2784 274.531 55.3181 274.656Z" fill="white" stroke="#D6F3F1" stroke-miterlimit="10"/>
<path d="M263.262 239.489C263.411 239.53 263.57 239.541 263.699 239.613C268.189 242.306 272.679 245.008 277.278 247.773C276.742 248.177 276.494 247.825 276.245 247.68C273.752 246.199 271.269 244.687 268.775 243.196C267.176 242.233 265.577 241.27 263.978 240.307C263.699 240.141 263.431 239.934 263.163 239.748L263.272 239.479L263.262 239.489Z" fill="white" stroke="#D6F3F1" stroke-miterlimit="10"/>
<path d="M41.2832 106.184C41.6905 106.35 41.9388 106.412 42.1573 106.536C47.9087 109.798 54.8918 114.137 55.3885 114.841C55.0607 114.738 54.8422 114.696 54.6534 114.603C49.7861 111.9 41.8295 106.95 41.2832 106.194V106.184Z" fill="white" stroke="#D6F3F1" stroke-miterlimit="10"/>
<path d="M188.385 247.949C188.256 247.97 188.137 248.032 188.077 248.001C183.568 245.298 179.068 242.585 174.568 239.872C174.508 239.841 174.508 239.696 174.469 239.572C174.598 239.551 174.717 239.478 174.777 239.52C179.286 242.223 183.786 244.936 188.286 247.659C188.346 247.701 188.356 247.835 188.395 247.96L188.385 247.949Z" fill="white" stroke="#D6F3F1" stroke-miterlimit="10"/>
<path d="M188.306 34.7321C187.442 34.5147 175.005 27.007 174.419 26.2925C174.647 26.3132 174.816 26.2925 174.926 26.3546C179.316 28.9849 183.697 31.6255 188.087 34.2558C188.236 34.3386 188.405 34.3904 188.554 34.4629C188.475 34.5457 188.385 34.6389 188.306 34.7218V34.7321Z" fill="white" stroke="#D6F3F1" stroke-miterlimit="10"/>
<path d="M85.7041 239.748C86.5782 239.738 99.0147 247.204 99.6803 247.908C99.2929 248.188 99.0346 247.836 98.7863 247.68C96.293 246.199 93.8097 244.688 91.3164 243.196C89.7172 242.233 88.1179 241.27 86.5186 240.307C86.2405 240.142 85.9822 239.934 85.714 239.748H85.7041Z" fill="white" stroke="#D6F3F1" stroke-miterlimit="10"/>
<path d="M130.285 106.194C134.894 108.949 139.493 111.724 144.201 114.572C143.665 114.965 143.417 114.624 143.168 114.468C140 112.573 136.841 110.668 133.682 108.773C132.679 108.172 131.676 107.572 130.672 106.95C130.454 106.816 130.265 106.629 130.066 106.474C130.136 106.381 130.215 106.288 130.285 106.194Z" fill="white" stroke="#D6F3F1" stroke-miterlimit="10"/>
<path d="M263.113 26.2197C263.451 26.3233 263.67 26.3647 263.849 26.4683C268.626 29.1192 276.662 34.1105 277.219 34.8768C276.811 34.7111 276.563 34.649 276.345 34.5247C271.04 31.532 263.59 26.8928 263.104 26.2197H263.113Z" fill="white" stroke="#D6F3F1" stroke-miterlimit="10"/>
<path d="M218.801 213.124C219.655 213.124 232.072 220.57 232.767 221.305C232.38 221.564 232.131 221.232 231.873 221.077C228.694 219.182 225.526 217.266 222.357 215.361C221.383 214.771 220.4 214.191 219.427 213.59C219.208 213.455 219.009 213.279 218.801 213.124Z" fill="white" stroke="#D6F3F1" stroke-miterlimit="10"/>
<path d="M218.92 106.267C219.099 106.329 219.288 106.36 219.446 106.453C223.906 109.136 228.367 111.797 232.916 114.572C232.38 114.955 232.131 114.614 231.883 114.458C228.823 112.636 225.774 110.792 222.724 108.959C221.632 108.297 220.529 107.644 219.437 106.971C219.218 106.837 219.019 106.661 218.801 106.505C218.841 106.422 218.88 106.35 218.91 106.267H218.92Z" fill="white" stroke="#D6F3F1" stroke-miterlimit="10"/>
<path d="M130.057 212.896C130.335 212.959 130.524 212.969 130.683 213.052C133.951 214.76 143.576 220.736 144.093 221.429C143.814 221.357 143.626 221.357 143.467 221.274C139.96 219.42 130.573 213.59 130.047 212.907L130.057 212.896Z" fill="white" stroke="#D6F3F1" stroke-miterlimit="10"/>
<path d="M55.3482 221.181C54.484 221.202 42.0575 213.746 41.3721 213.021C41.7595 212.741 42.0177 213.093 42.2661 213.238C44.7295 214.709 47.193 216.19 49.6465 217.67C51.2756 218.654 52.9046 219.628 54.5337 220.611C54.8118 220.777 55.0701 220.984 55.3383 221.171L55.3482 221.181Z" fill="white" stroke="#D6F3F1" stroke-miterlimit="10"/>
<path d="M55.3579 61.4695C55.1294 61.4385 54.9705 61.4488 54.8413 61.3867C52.4176 60.1751 41.8287 53.6202 41.332 52.9678C41.6102 53.0299 41.8088 53.0299 41.9578 53.1127C45.1564 54.78 54.8513 60.7964 55.3579 61.4695Z" fill="white" stroke="#D6F3F1" stroke-miterlimit="10"/>
<path d="M99.5511 52.9263C99.0842 53.7443 86.6279 61.2416 85.7637 61.4488C85.8034 60.9413 86.2305 60.8688 86.5087 60.7032C89.3198 58.9945 92.1309 57.3066 94.952 55.6187C96.2234 54.8524 97.4949 54.0861 98.7763 53.3198C99.0246 53.1748 99.2928 53.0609 99.5511 52.9263Z" fill="white" stroke="#D6F3F1" stroke-miterlimit="10"/>
<path d="M130.196 53.0195C131.07 53.237 143.506 60.7446 144.083 61.4592C143.854 61.4385 143.685 61.4592 143.576 61.397C139.185 58.7668 134.805 56.1261 130.414 53.4959C130.265 53.4027 130.096 53.3613 129.938 53.2991C130.027 53.2059 130.116 53.1127 130.196 53.0195Z" fill="white" stroke="#D6F3F1" stroke-miterlimit="10"/>
<path d="M188.435 52.999C187.928 53.6307 177.21 60.2581 174.926 61.3972C174.807 61.4594 174.638 61.4387 174.409 61.4697C174.906 60.8381 185.852 54.0553 187.909 53.0612C188.038 52.999 188.207 53.0197 188.425 52.999H188.435Z" fill="white" stroke="#D6F3F1" stroke-miterlimit="10"/>
<path d="M232.826 61.5315C232.489 61.4279 232.27 61.3865 232.091 61.2933C227.373 58.6838 219.277 53.651 218.751 52.9365C219.089 53.0504 219.307 53.0815 219.496 53.1851C224.035 55.6807 232.31 60.817 232.826 61.5419V61.5315Z" fill="white" stroke="#D6F3F1" stroke-miterlimit="10"/>
<path d="M263.133 61.5005C263.649 60.7964 271.993 55.6187 276.453 53.1748C276.642 53.0712 276.861 53.0402 277.198 52.9263C276.652 53.6511 267.335 59.4295 263.759 61.3348C263.6 61.4177 263.411 61.428 263.133 61.5005Z" fill="white" stroke="#D6F3F1" stroke-miterlimit="10"/>
<path d="M276.991 159.545C276.544 160.353 264.087 167.861 263.203 168.068C263.233 167.56 263.67 167.488 263.948 167.322C266.849 165.562 269.749 163.822 272.66 162.072C273.842 161.358 275.024 160.643 276.216 159.939C276.464 159.794 276.732 159.68 276.991 159.545Z" fill="white" stroke="#D6F3F1" stroke-miterlimit="10"/>
<path d="M232.678 168.12C232.529 168.078 232.37 168.068 232.241 167.995C227.751 165.303 223.261 162.6 218.662 159.835C219.199 159.442 219.447 159.784 219.695 159.929C222.188 161.409 224.672 162.921 227.165 164.412C228.764 165.376 230.364 166.339 231.963 167.302C232.241 167.467 232.509 167.674 232.777 167.861C232.738 167.944 232.708 168.037 232.668 168.12H232.678Z" fill="white" stroke="#D6F3F1" stroke-miterlimit="10"/>
<path d="M188.385 159.69C187.878 160.312 175.452 167.819 174.488 168.089C174.498 167.56 174.935 167.498 175.213 167.333C178.084 165.593 180.955 163.864 183.836 162.134C185.077 161.389 186.319 160.633 187.57 159.887C187.809 159.742 188.047 159.452 188.395 159.69H188.385Z" fill="white" stroke="#D6F3F1" stroke-miterlimit="10"/>
<path d="M277.02 266.195C276.494 267.024 264.038 274.5 263.203 274.676C263.253 274.179 263.68 274.097 263.958 273.931C267.216 271.963 270.474 270.006 273.732 268.039C274.616 267.5 275.51 266.962 276.404 266.434C276.593 266.32 276.822 266.268 277.02 266.185V266.195Z" fill="white" stroke="#D6F3F1" stroke-miterlimit="10"/>
<path d="M55.3686 79.498C55.2692 79.7776 55.2593 79.9123 55.1997 79.9433C50.6999 82.6564 46.2001 85.3696 41.6904 88.0723C41.6308 88.1137 41.5116 88.0412 41.4023 88.0205C41.7897 87.4717 48.5146 83.2881 54.554 79.8398C54.7626 79.7155 55.011 79.6534 55.3686 79.498Z" fill="white" stroke="#D6F3F1" stroke-miterlimit="10"/>
<path d="M129.997 87.9377C130.216 87.7513 130.325 87.6271 130.464 87.5442C134.914 84.8829 139.364 82.2216 143.814 79.5706C143.844 79.5499 143.934 79.6224 143.993 79.6431C144.003 79.6741 144.023 79.7052 144.023 79.7363C144.023 79.7673 144.033 79.8295 144.023 79.8398C139.652 82.5012 135.282 85.1625 130.911 87.8135C130.732 87.917 130.543 87.9999 130.355 88.0724C130.305 88.0931 130.235 88.0309 130.007 87.9377H129.997Z" fill="white" stroke="#D6F3F1" stroke-miterlimit="10"/>
<path d="M99.7299 212.907C99.2233 213.559 88.6642 220.104 86.2206 221.326C86.0915 221.388 85.9326 221.377 85.7041 221.409C86.2206 220.735 95.9056 214.719 99.1041 213.052C99.2631 212.969 99.4518 212.969 99.7299 212.907Z" fill="white" stroke="#D6F3F1" stroke-miterlimit="10"/>
<path d="M130.057 247.722C134.576 245.009 139.096 242.285 143.616 239.572C143.715 239.51 143.854 239.531 144.053 239.665C143.904 239.81 143.765 239.986 143.596 240.1C139.354 242.896 130.851 247.846 130.156 247.939C130.126 247.867 130.086 247.794 130.057 247.722Z" fill="white" stroke="#D6F3F1" stroke-miterlimit="10"/>
<path d="M263.153 186.417C264.057 186.428 276.504 193.915 277.129 194.609C276.692 194.857 276.424 194.484 276.136 194.319C273.226 192.579 270.325 190.829 267.425 189.089C266.243 188.375 265.051 187.67 263.869 186.946C263.62 186.79 263.392 186.604 263.153 186.428V186.417Z" fill="white" stroke="#D6F3F1" stroke-miterlimit="10"/>
<path d="M232.817 186.501C228.287 189.224 223.757 191.948 219.218 194.671C219.129 194.723 218.98 194.671 218.801 194.671C218.88 194.495 218.9 194.36 218.97 194.319C223.459 191.606 227.939 188.903 232.439 186.211C232.509 186.169 232.618 186.221 232.707 186.231C232.747 186.325 232.777 186.407 232.817 186.501Z" fill="white" stroke="#D6F3F1" stroke-miterlimit="10"/>
<path d="M174.27 186.252C175.164 186.356 182.176 190.446 187.848 194.06C188.057 194.195 188.226 194.371 188.573 194.65C187.67 194.547 180.607 190.436 174.995 186.842C174.796 186.708 174.617 186.532 174.27 186.242V186.252Z" fill="white" stroke="#D6F3F1" stroke-miterlimit="10"/>
<path d="M130.027 194.681C130.574 194.091 142.206 186.915 143.636 186.252C143.735 186.2 143.874 186.231 144.232 186.21C143.904 186.511 143.755 186.687 143.576 186.801C139.176 189.679 130.931 194.495 130.027 194.681Z" fill="white" stroke="#D6F3F1" stroke-miterlimit="10"/>
<path d="M55.3388 186.345C55.2096 186.48 55.1103 186.645 54.9613 186.749C51.9118 188.82 42.2069 194.495 41.4023 194.671C41.452 194.163 41.8791 194.101 42.1573 193.925C45.6339 191.813 49.1205 189.721 52.6071 187.629C53.3124 187.205 54.0176 186.77 54.7328 186.356C54.8818 186.262 55.0805 186.252 55.2494 186.2C55.2792 186.252 55.299 186.293 55.3288 186.345H55.3388Z" fill="white" stroke="#D6F3F1" stroke-miterlimit="10"/>
<path d="M41.4816 248.032C42.0577 247.183 54.4843 239.717 55.2988 239.551C55.2392 240.048 54.822 240.121 54.534 240.297C51.0772 242.389 47.6005 244.47 44.1338 246.562C43.4484 246.976 42.7729 247.39 42.0875 247.794C41.8988 247.908 41.6803 247.96 41.4717 248.043L41.4816 248.032Z" fill="white" stroke="#D6F3F1" stroke-miterlimit="10"/>
<path d="M277.109 212.979C277.069 213.104 277.059 213.238 277 213.28C272.5 215.993 268 218.706 263.491 221.409C263.431 221.45 263.312 221.378 263.183 221.347C263.222 221.222 263.232 221.088 263.292 221.046C267.792 218.333 272.291 215.62 276.801 212.917C276.861 212.876 276.99 212.948 277.109 212.979Z" fill="white" stroke="#D6F3F1" stroke-miterlimit="10"/>
<path d="M55.2883 26.4166C54.6228 27.1207 42.2061 34.5663 41.3916 34.7216C41.4611 34.2245 41.8783 34.1521 42.1664 33.9864C46.2192 31.5321 50.2819 29.0883 54.3446 26.6548C54.6228 26.4891 54.9108 26.3544 55.1989 26.2095C55.2287 26.282 55.2585 26.3544 55.2883 26.4269V26.4166Z" fill="white" stroke="#D6F3F1" stroke-miterlimit="10"/>
<path d="M143.933 26.2407C143.427 27.0692 130.99 34.5457 130.126 34.7321C130.176 34.2247 130.603 34.1522 130.881 33.9866C134.338 31.8844 137.804 29.803 141.271 27.7215C141.957 27.3073 142.632 26.8931 143.317 26.4996C143.506 26.3857 143.725 26.3236 143.923 26.2407H143.933Z" fill="white" stroke="#D6F3F1" stroke-miterlimit="10"/>
<path d="M99.6706 194.64C99.5514 194.661 99.4223 194.733 99.3627 194.702C94.853 191.999 90.3532 189.286 85.8534 186.573C85.7938 186.532 85.7839 186.397 85.7441 186.273C85.8733 186.242 85.9925 186.169 86.0521 186.211C90.5618 188.913 95.0616 191.627 99.5614 194.34C99.621 194.381 99.6309 194.516 99.6806 194.64H99.6706Z" fill="white" stroke="#D6F3F1" stroke-miterlimit="10"/>
<path d="M174.488 221.284C175.025 220.653 187.471 213.145 188.365 212.938C188.395 213.373 188.037 213.435 187.809 213.57C185.534 214.947 183.249 216.324 180.965 217.691C179.127 218.799 177.289 219.907 175.452 221.005C175.174 221.171 174.876 221.315 174.588 221.46C174.558 221.398 174.518 221.336 174.488 221.264V221.284Z" fill="white" stroke="#D6F3F1" stroke-miterlimit="10"/>
<path d="M85.7344 114.676C85.794 114.572 85.8337 114.438 85.9132 114.375C87.0158 113.516 98.9854 106.474 99.6609 106.309C99.6211 106.826 99.194 106.888 98.9159 107.054C95.8167 108.928 92.7175 110.792 89.6183 112.656C88.5852 113.278 87.5522 113.909 86.5191 114.52C86.3105 114.645 86.0622 114.717 85.8337 114.81C85.8039 114.759 85.7642 114.717 85.7344 114.665V114.676Z" fill="white" stroke="#D6F3F1" stroke-miterlimit="10"/>
<path d="M232.738 26.4166C232.072 27.1207 219.655 34.5663 218.841 34.7216C218.91 34.2245 219.328 34.1521 219.616 33.9864C223.668 31.5321 227.731 29.0883 231.794 26.6548C232.072 26.4891 232.36 26.3544 232.648 26.2095C232.678 26.282 232.708 26.3544 232.738 26.4269V26.4166Z" fill="white" stroke="#D6F3F1" stroke-miterlimit="10"/>
<path d="M55.388 132.891C54.782 133.616 46.6169 138.669 42.0674 141.185C41.8787 141.289 41.6601 141.33 41.3721 141.268C41.4615 141.154 41.5409 140.999 41.6502 140.916C43.468 139.611 54.5337 133.108 55.378 132.891H55.388Z" fill="white" stroke="#D6F3F1" stroke-miterlimit="10"/>
<path d="M99.7104 141.154C98.8561 141.185 86.4494 133.75 85.7441 133.005C86.0819 132.694 86.3203 133.036 86.5388 133.17C89.0917 134.693 91.6445 136.225 94.1874 137.758C95.7569 138.7 97.3264 139.642 98.8958 140.595C99.174 140.761 99.4422 140.968 99.7104 141.154Z" fill="white" stroke="#D6F3F1" stroke-miterlimit="10"/>
<path d="M143.933 132.849C143.387 133.709 130.951 141.175 130.116 141.351C130.176 140.843 130.603 140.781 130.881 140.605C133.901 138.772 136.921 136.96 139.94 135.148C141.033 134.485 142.126 133.823 143.228 133.17C143.447 133.036 143.695 132.953 143.923 132.849H143.933Z" fill="white" stroke="#D6F3F1" stroke-miterlimit="10"/>
<path d="M174.419 133.119C175.323 133.119 187.759 140.595 188.395 141.289C187.998 141.558 187.749 141.206 187.501 141.061C185.127 139.643 182.753 138.213 180.389 136.784C178.67 135.749 176.952 134.724 175.233 133.678C174.955 133.512 174.697 133.305 174.429 133.119H174.419Z" fill="white" stroke="#D6F3F1" stroke-miterlimit="10"/>
<path d="M218.712 141.258C218.93 141.072 219.04 140.947 219.169 140.865C223.619 138.203 228.069 135.542 232.519 132.891C232.549 132.87 232.638 132.932 232.698 132.963C232.708 132.994 232.728 133.025 232.728 133.057C232.728 133.088 232.748 133.15 232.728 133.16C228.417 135.78 224.106 138.41 219.795 141.03C219.556 141.175 219.318 141.289 219.07 141.403C219.03 141.424 218.95 141.362 218.712 141.268V141.258Z" fill="white" stroke="#D6F3F1" stroke-miterlimit="10"/>
<path d="M263.094 132.911C263.998 133.108 273.454 138.648 276.742 140.833C276.911 140.947 277.1 140.999 277.288 141.082C277.219 141.185 277.139 141.278 277.07 141.382C276.921 141.351 276.752 141.361 276.623 141.299C274.706 140.346 263.7 133.564 263.094 132.911Z" fill="white" stroke="#D6F3F1" stroke-miterlimit="10"/>
<path d="M174.23 114.603C178.899 111.797 183.379 109.094 187.869 106.402C187.998 106.329 188.167 106.319 188.306 106.277C188.346 106.381 188.366 106.412 188.366 106.443C188.366 106.474 188.376 106.536 188.366 106.547C184.055 109.177 179.743 111.797 175.432 114.417C175.194 114.562 174.956 114.686 174.707 114.8C174.668 114.821 174.588 114.758 174.24 114.603H174.23Z" fill="white" stroke="#D6F3F1" stroke-miterlimit="10"/>
<path d="M277.189 88.0828C276.424 87.8964 264.504 80.8858 263.362 79.9952C263.272 79.9227 263.233 79.7985 263.054 79.4878C263.471 79.6328 263.68 79.6845 263.868 79.7881C268.736 82.5116 276.603 87.3889 277.189 88.0828Z" fill="white" stroke="#D6F3F1" stroke-miterlimit="10"/>
<path d="M277.109 106.35C277.069 106.474 277.069 106.609 277 106.65C272.5 109.374 268 112.076 263.491 114.79C263.431 114.831 263.312 114.758 263.183 114.738C263.222 114.613 263.222 114.479 263.282 114.437C267.782 111.724 272.282 109.011 276.791 106.308C276.851 106.267 276.98 106.34 277.099 106.36L277.109 106.35Z" fill="white" stroke="#D6F3F1" stroke-miterlimit="10"/>
<path d="M99.6211 88.0831C99.4721 88.052 99.3132 88.052 99.1741 87.9899C96.9491 86.8715 86.2608 80.2751 85.7344 79.6745C86.1714 79.4363 86.4396 79.8091 86.7178 79.9748C89.9759 81.9216 93.2241 83.8788 96.4723 85.836C97.3861 86.3848 98.3099 86.9336 99.2139 87.4928C99.3927 87.6067 99.5317 87.7828 99.6907 87.9277C99.6609 87.9795 99.641 88.0313 99.6112 88.0831H99.6211Z" fill="white" stroke="#D6F3F1" stroke-miterlimit="10"/>
<path d="M232.827 239.458C232.34 240.131 224.94 244.729 219.586 247.763C219.368 247.887 219.129 247.949 218.712 248.115C219.268 247.349 227.294 242.368 232.082 239.707C232.261 239.603 232.479 239.572 232.817 239.458H232.827Z" fill="white" stroke="#D6F3F1" stroke-miterlimit="10"/>
<path d="M174.35 79.7052C174.568 79.6328 174.677 79.5499 174.747 79.5706C175.462 79.8399 187.978 87.5236 188.405 87.9688C187.968 88.2381 187.7 87.8653 187.422 87.6996C184.462 85.9288 181.512 84.1477 178.561 82.3769C177.379 81.6624 176.197 80.9582 175.015 80.2437C174.797 80.1091 174.618 79.9331 174.35 79.7052Z" fill="white" stroke="#D6F3F1" stroke-miterlimit="10"/>
<path d="M159.251 88.7041C159.519 89.6568 159.648 101.472 159.469 104.962C159.469 105.148 159.39 105.324 159.161 105.501C159.122 105.324 159.042 105.138 159.042 104.962C158.863 101.462 158.982 89.6568 159.251 88.7041Z" fill="white" stroke="#D6F3F1" stroke-miterlimit="10"/>
<path d="M247.955 88.7144C248.283 89.7292 248.273 104.724 247.995 105.48C247.965 105.48 247.926 105.49 247.896 105.48C247.866 105.469 247.836 105.428 247.836 105.397C247.806 105.221 247.767 105.055 247.767 104.879C247.767 99.6393 247.767 94.3995 247.786 89.1493C247.786 89.0561 247.856 88.9629 247.965 88.7144H247.955Z" fill="white" stroke="#D6F3F1" stroke-miterlimit="10"/>
<path d="M70.5561 158.955C70.2283 157.971 70.2284 142.977 70.5065 142.19C70.5363 142.19 70.576 142.179 70.6058 142.19C70.6356 142.2 70.6654 142.241 70.6654 142.262C70.6952 142.397 70.7349 142.531 70.7349 142.676C70.7349 147.958 70.7349 153.229 70.725 158.51C70.725 158.603 70.6555 158.696 70.5561 158.945V158.955Z" fill="white" stroke="#D6F3F1" stroke-miterlimit="10"/>
<path d="M159.122 35.5605C159.549 36.3579 159.549 51.3629 159.271 52.1706C159.241 52.1706 159.201 52.1706 159.171 52.1706C159.141 52.1602 159.112 52.1188 159.112 52.0981C159.082 46.7547 159.052 41.4113 159.032 36.068C159.032 35.9023 159.092 35.7366 159.122 35.5709V35.5605Z" fill="white" stroke="#D6F3F1" stroke-miterlimit="10"/>
<path d="M248.005 52.3359C247.667 51.3625 247.677 36.3575 247.955 35.5705C247.985 35.5705 248.025 35.5602 248.055 35.5705C248.085 35.5809 248.114 35.6223 248.114 35.643C248.144 35.7776 248.184 35.9122 248.184 36.0572C248.184 41.3385 248.184 46.6094 248.174 51.8906C248.174 51.9838 248.104 52.077 248.005 52.3255V52.3359Z" fill="white" stroke="#D6F3F1" stroke-miterlimit="10"/>
<path d="M159.111 158.789V142.117C159.618 142.314 159.459 142.687 159.469 142.956C159.479 145.234 159.469 147.523 159.469 149.801C159.469 152.473 159.469 155.155 159.469 157.826C159.469 158.147 159.429 158.479 159.409 158.8C159.31 158.8 159.211 158.789 159.111 158.779V158.789Z" fill="white" stroke="#D6F3F1" stroke-miterlimit="10"/>
<path d="M248.094 158.8C247.667 157.992 247.667 142.987 247.945 142.19C247.975 142.19 248.014 142.19 248.044 142.19C248.074 142.2 248.104 142.242 248.104 142.262C248.134 147.606 248.154 152.949 248.183 158.293C248.183 158.458 248.124 158.624 248.094 158.79V158.8Z" fill="white" stroke="#D6F3F1" stroke-miterlimit="10"/>
<path d="M70.5561 52.3359C70.2283 51.3521 70.2284 36.3575 70.5065 35.5705C70.5363 35.5705 70.576 35.5602 70.6058 35.5705C70.6356 35.5809 70.6654 35.6223 70.6654 35.643C70.6952 35.7776 70.7349 35.9122 70.7349 36.0572C70.7349 41.3385 70.7349 46.6094 70.725 51.8906C70.725 51.9838 70.6555 52.077 70.5561 52.3255V52.3359Z" fill="white" stroke="#D6F3F1" stroke-miterlimit="10"/>
<path d="M70.3969 195.499C70.824 196.296 70.824 211.291 70.5558 212.109C70.526 212.109 70.4862 212.109 70.4564 212.109C70.4266 212.099 70.3969 212.057 70.3969 212.037C70.3671 206.693 70.3372 201.35 70.3174 196.006C70.3174 195.841 70.377 195.675 70.4068 195.509L70.3969 195.499Z" fill="white" stroke="#D6F3F1" stroke-miterlimit="10"/>
<path d="M159.4 212.109C158.953 211.353 158.943 196.359 159.241 195.427C159.578 195.768 159.459 196.172 159.459 196.524C159.459 200.625 159.459 204.726 159.459 208.827C159.459 209.645 159.459 210.463 159.459 211.291C159.459 211.571 159.419 211.84 159.39 212.12L159.4 212.109Z" fill="white" stroke="#D6F3F1" stroke-miterlimit="10"/>
<path d="M248.114 195.51V212.11C248.055 212.12 247.995 212.141 247.926 212.151C247.866 211.954 247.757 211.768 247.757 211.571C247.737 210.432 247.757 209.293 247.757 208.144C247.757 204.291 247.757 200.439 247.757 196.587C247.757 196.224 247.787 195.852 247.807 195.489C247.916 195.489 248.015 195.489 248.124 195.5L248.114 195.51Z" fill="white" stroke="#D6F3F1" stroke-miterlimit="10"/>
<path d="M70.3672 248.819C70.8242 249.534 70.854 264.508 70.556 265.492C70.1884 265.17 70.3275 264.756 70.3176 264.415C70.3076 260.635 70.3176 256.855 70.3176 253.075C70.3176 251.967 70.3176 250.859 70.3176 249.762C70.3176 249.451 70.3474 249.14 70.3672 248.83V248.819Z" fill="white" stroke="#D6F3F1" stroke-miterlimit="10"/>
<path d="M159.25 265.595C158.972 264.653 158.853 252.899 159.032 249.337C159.032 249.151 159.111 248.974 159.33 248.788C159.37 248.933 159.449 249.078 159.459 249.223C159.628 251.522 159.499 264.715 159.25 265.595Z" fill="white" stroke="#D6F3F1" stroke-miterlimit="10"/>
<path d="M247.846 248.809C248.273 249.616 248.273 264.621 247.995 265.419C247.965 265.419 247.926 265.419 247.896 265.419C247.866 265.408 247.836 265.367 247.836 265.346C247.807 260.003 247.787 254.659 247.757 249.316C247.757 249.15 247.816 248.985 247.846 248.819V248.809Z" fill="white" stroke="#D6F3F1" stroke-miterlimit="10"/>
<path d="M70.4467 105.501C70.4069 105.325 70.3275 105.138 70.3175 104.962C70.1387 101.493 70.2579 89.6468 70.4963 88.8184C70.8738 89.129 70.7347 89.5432 70.7347 89.885C70.7447 93.1987 70.7347 96.5124 70.7347 99.8365C70.7347 101.442 70.7347 103.047 70.7347 104.652C70.7347 104.942 70.6751 105.221 70.6453 105.511C70.5758 105.511 70.5063 105.511 70.4367 105.511L70.4467 105.501Z" fill="white" stroke="#D6F3F1" stroke-miterlimit="10"/>
<path d="M26.125 185.413C25.8866 184.616 25.8667 169.797 26.2442 168.855C26.2939 169.093 26.3733 169.321 26.3733 169.559C26.3833 171.371 26.3733 173.194 26.3733 175.006C26.3733 178.102 26.3733 181.199 26.3733 184.305C26.3733 184.678 26.3435 185.051 26.3336 185.424C26.2641 185.424 26.1846 185.424 26.1151 185.424L26.125 185.413Z" fill="white" stroke="#D6F3F1" stroke-miterlimit="10"/>
<path d="M114.948 168.896C115.187 169.766 115.177 184.595 114.919 185.486C114.561 185.165 114.68 184.761 114.68 184.409C114.67 181.592 114.68 178.786 114.68 175.969C114.68 173.939 114.68 171.91 114.68 169.88C114.68 169.549 114.71 169.217 114.73 168.875C114.809 168.875 114.879 168.875 114.958 168.875L114.948 168.896Z" fill="white" stroke="#D6F3F1" stroke-miterlimit="10"/>
<path d="M203.673 168.896C203.911 169.807 203.891 184.626 203.633 185.496C203.285 185.165 203.404 184.761 203.404 184.409C203.404 181.312 203.404 178.216 203.404 175.109C203.404 173.37 203.404 171.62 203.404 169.87C203.404 169.538 203.434 169.207 203.454 168.875C203.534 168.875 203.603 168.875 203.683 168.886L203.673 168.896Z" fill="white" stroke="#D6F3F1" stroke-miterlimit="10"/>
<path d="M114.849 292.032C114.61 291.245 114.59 276.437 114.968 275.474C115.018 275.712 115.097 275.94 115.097 276.178C115.107 277.607 115.097 279.026 115.097 280.455C115.097 283.945 115.097 287.435 115.097 290.924C115.097 291.297 115.067 291.67 115.057 292.043C114.988 292.043 114.908 292.043 114.839 292.043L114.849 292.032Z" fill="white" stroke="#D6F3F1" stroke-miterlimit="10"/>
<path d="M114.849 132.104C114.61 131.317 114.59 116.498 114.968 115.545C115.018 115.784 115.097 116.011 115.097 116.25C115.107 118.062 115.097 119.884 115.097 121.697C115.097 124.793 115.097 127.889 115.097 130.985C115.097 131.358 115.067 131.731 115.057 132.104C114.988 132.104 114.908 132.104 114.839 132.104H114.849Z" fill="white" stroke="#D6F3F1" stroke-miterlimit="10"/>
<path d="M26.1151 132.103C25.8767 131.244 25.8867 116.415 26.135 115.524C26.5025 115.783 26.3734 116.166 26.3833 116.477C26.3933 119.107 26.3833 121.748 26.3833 124.378C26.3833 126.625 26.3833 128.862 26.3833 131.109C26.3833 131.441 26.3535 131.782 26.3337 132.114C26.2542 132.114 26.1847 132.114 26.1052 132.103H26.1151Z" fill="white" stroke="#D6F3F1" stroke-miterlimit="10"/>
<path d="M203.663 275.515C203.901 276.364 203.901 291.193 203.643 292.094C203.265 291.835 203.394 291.452 203.394 291.142C203.384 288.687 203.394 286.223 203.394 283.768C203.394 281.314 203.394 278.922 203.394 276.509C203.394 276.178 203.424 275.836 203.434 275.505C203.514 275.505 203.583 275.505 203.663 275.505V275.515Z" fill="white" stroke="#D6F3F1" stroke-miterlimit="10"/>
<path d="M26.184 8.95762C26.4423 9.64108 26.5118 24.2629 26.2337 25.6505C26.1045 25.3709 25.9853 25.2259 25.9754 25.0602C25.9456 24.6357 25.9655 24.2111 25.9655 23.7762C25.9655 19.2198 25.9655 14.6634 25.9655 10.0967V8.94727C26.0449 8.94727 26.1145 8.94727 26.1939 8.94727L26.184 8.95762Z" fill="white" stroke="#D6F3F1" stroke-miterlimit="10"/>
<path d="M114.849 25.4743C114.61 24.6873 114.59 9.86871 114.968 8.91602C115.018 9.15419 115.097 9.38201 115.097 9.62018C115.107 11.4324 115.097 13.2549 115.097 15.0671C115.097 18.1634 115.097 21.2596 115.097 24.3663C115.097 24.739 115.067 25.1118 115.057 25.4846C114.988 25.4846 114.908 25.4846 114.839 25.4846L114.849 25.4743Z" fill="white" stroke="#D6F3F1" stroke-miterlimit="10"/>
<path d="M203.553 25.4741C203.315 24.6042 203.325 9.77533 203.583 8.88477C203.941 9.20578 203.822 9.60964 203.822 9.96173C203.832 12.7784 203.822 15.5847 203.822 18.4014C203.822 20.431 203.822 22.4607 203.822 24.4903C203.822 24.8217 203.792 25.1634 203.772 25.4948C203.693 25.4948 203.623 25.4948 203.544 25.4844L203.553 25.4741Z" fill="white" stroke="#D6F3F1" stroke-miterlimit="10"/>
<path d="M26.224 62.2667C26.4624 63.1573 26.4524 77.9758 26.1842 78.856C25.8266 78.535 25.9458 78.1312 25.9458 77.7791C25.9458 74.8899 25.9458 72.0111 25.9458 69.122C25.9458 67.1648 25.9458 65.2076 25.9458 63.2505C25.9458 62.9191 25.9756 62.5877 25.9955 62.2563C26.075 62.2563 26.1445 62.2563 26.224 62.2667Z" fill="white" stroke="#D6F3F1" stroke-miterlimit="10"/>
<path d="M114.879 78.7943C114.63 78.1109 114.561 63.458 114.839 62.1118C114.968 62.3914 115.087 62.5467 115.097 62.7021C115.127 63.2716 115.107 63.8412 115.107 64.4107C115.107 68.8221 115.107 73.2439 115.107 77.6552V78.7943C115.028 78.7943 114.948 78.7943 114.879 78.7943Z" fill="white" stroke="#D6F3F1" stroke-miterlimit="10"/>
<path d="M203.673 62.2671C203.911 63.1784 203.891 77.9969 203.633 78.8668C203.285 78.5354 203.404 78.1315 203.404 77.7795C203.404 74.6832 203.404 71.5869 203.404 68.4907C203.404 66.7406 203.404 65.0009 203.404 63.2612C203.404 62.9298 203.434 62.5985 203.454 62.2671C203.534 62.2671 203.603 62.2671 203.683 62.2774L203.673 62.2671Z" fill="white" stroke="#D6F3F1" stroke-miterlimit="10"/>
<path d="M203.672 222.206C203.911 223.096 203.901 237.915 203.632 238.795C203.275 238.474 203.394 238.07 203.394 237.718C203.394 234.829 203.394 231.95 203.394 229.061C203.394 227.104 203.394 225.147 203.394 223.189C203.394 222.858 203.424 222.527 203.444 222.195C203.523 222.195 203.593 222.195 203.672 222.206Z" fill="white" stroke="#D6F3F1" stroke-miterlimit="10"/>
<path d="M203.564 132.104C203.325 131.275 203.325 116.446 203.564 115.535C203.931 115.732 203.812 116.094 203.812 116.364C203.822 118.497 203.812 120.64 203.812 122.774C203.812 125.518 203.812 128.262 203.812 130.996C203.812 131.369 203.782 131.741 203.762 132.114C203.693 132.114 203.613 132.114 203.544 132.114L203.564 132.104Z" fill="white" stroke="#D6F3F1" stroke-miterlimit="10"/>
<path d="M26.1741 238.795C26.0847 238.671 25.9854 238.598 25.9854 238.526C25.9854 233.152 25.9854 227.777 25.9854 222.403C25.9854 222.33 26.0847 222.258 26.1642 222.123C26.2536 222.247 26.3529 222.32 26.3529 222.392C26.3529 227.767 26.3529 233.141 26.3529 238.516C26.3529 238.588 26.2536 238.661 26.1741 238.795Z" fill="white" stroke="#D6F3F1" stroke-miterlimit="10"/>
<path d="M114.849 238.723C114.61 237.915 114.6 223.097 114.849 222.154C115.226 222.351 115.107 222.703 115.107 222.983C115.117 224.909 115.107 226.825 115.107 228.751C115.107 231.702 115.107 234.664 115.107 237.615C115.107 237.988 115.077 238.36 115.067 238.733C114.998 238.733 114.918 238.733 114.849 238.733V238.723Z" fill="white" stroke="#D6F3F1" stroke-miterlimit="10"/>
<path d="M26.1249 292.032C25.8865 291.214 25.8766 276.385 26.1249 275.464C26.5024 275.661 26.3733 276.023 26.3733 276.292C26.3832 278.353 26.3733 280.424 26.3733 282.485C26.3733 285.301 26.3733 288.108 26.3733 290.924C26.3733 291.297 26.3435 291.67 26.3335 292.043C26.264 292.043 26.1845 292.043 26.115 292.043L26.1249 292.032Z" fill="white" stroke="#D6F3F1" stroke-miterlimit="10"/>
<path d="M220.37 300.068C224.393 297.655 228.416 295.242 232.449 292.829C232.509 292.788 232.628 292.861 232.737 292.881C232.35 293.451 225.724 297.593 221.284 300.047C221.036 300.182 220.748 300.244 220.469 300.347C220.44 300.254 220.4 300.161 220.37 300.058V300.068Z" fill="white" stroke="#D6F3F1" stroke-miterlimit="10"/>
<path d="M131.616 300.089C135.659 297.666 139.712 295.242 143.755 292.819C143.804 292.788 143.924 292.881 144.023 292.912C143.596 293.441 134.05 299.385 132.361 300.172C132.163 300.265 131.914 300.254 131.696 300.285C131.666 300.213 131.646 300.151 131.616 300.078V300.089Z" fill="white" stroke="#D6F3F1" stroke-miterlimit="10"/>
<path d="M55.2991 292.913C55.2693 293.006 55.2693 293.14 55.2097 293.182C51.3059 295.543 47.4021 297.904 43.4884 300.255C43.3592 300.327 43.1606 300.286 42.9619 300.192C44.2532 299.24 45.634 298.453 46.9948 297.624C48.3557 296.796 49.7166 295.978 51.0774 295.16C52.4482 294.342 53.7892 293.492 55.1799 292.716C55.2196 292.778 55.2593 292.84 55.2991 292.913Z" fill="white" stroke="#D6F3F1" stroke-miterlimit="10"/>
<path d="M186.766 300.348C186.498 300.254 186.2 300.213 185.952 300.068C182.246 297.852 178.541 295.625 174.836 293.389C174.677 293.295 174.568 293.13 174.419 292.985C174.548 292.902 174.618 292.819 174.647 292.829C178.72 295.232 182.783 297.634 186.846 300.037C186.816 300.14 186.786 300.244 186.756 300.348H186.766Z" fill="white" stroke="#D6F3F1" stroke-miterlimit="10"/>
<path d="M98.052 300.337C97.754 300.233 97.4262 300.182 97.158 300.016C93.5423 297.852 89.9265 295.677 86.3108 293.492C86.0923 293.357 85.9035 293.171 85.7744 292.86C85.9135 292.871 86.0823 292.84 86.1916 292.902C90.1053 295.252 94.0191 297.603 97.9228 299.964C98.0023 300.016 98.052 300.109 98.1116 300.192C98.0917 300.244 98.0718 300.296 98.052 300.337Z" fill="white" stroke="#D6F3F1" stroke-miterlimit="10"/>
<path d="M263.144 292.985C263.273 292.892 263.352 292.809 263.372 292.819C267.445 295.222 271.507 297.624 275.63 300.058C275.113 300.503 274.805 300.141 274.497 299.954C271.736 298.308 268.984 296.64 266.233 294.984C265.379 294.466 264.514 293.958 263.66 293.43C263.471 293.316 263.322 293.14 263.144 292.985Z" fill="white" stroke="#D6F3F1" stroke-miterlimit="10"/>
<path d="M12.9628 17.2935C12.1383 17.7802 11.443 18.1944 10.698 18.6293C10.3603 17.6455 10.4199 16.8275 10.6185 15.9473C11.4926 16.0922 12.1383 16.5789 12.9528 17.2935H12.9628Z" fill="white" stroke="#D6F3F1" stroke-miterlimit="10"/>
<path d="M39.4248 17.2004C39.9016 16.8587 40.2195 16.5791 40.5771 16.372C40.8949 16.1856 41.2525 16.0613 41.6499 15.8853C41.9777 16.7655 41.9181 17.5835 41.7194 18.4741C40.8254 18.3602 40.1797 17.8321 39.4347 17.19L39.4248 17.2004Z" fill="white" stroke="#D6F3F1" stroke-miterlimit="10"/>
<path d="M101.667 17.1383C100.873 17.8735 100.217 18.3499 99.2832 18.5156V15.73C100.167 16.2477 100.853 16.6516 101.667 17.1383Z" fill="white" stroke="#D6F3F1" stroke-miterlimit="10"/>
<path d="M130.514 18.7328C129.58 18.1736 128.915 17.7697 128.17 17.3244C128.835 16.5374 129.561 16.1336 130.514 15.9058V18.7328Z" fill="white" stroke="#D6F3F1" stroke-miterlimit="10"/>
<path d="M190.402 17.283C189.588 17.7697 188.902 18.1839 188.157 18.6292C187.8 17.6662 187.879 16.8377 188.058 15.9575C188.932 16.0818 189.578 16.5788 190.402 17.2934V17.283Z" fill="white" stroke="#D6F3F1" stroke-miterlimit="10"/>
<path d="M216.824 17.1483C217.639 16.6616 218.334 16.2578 219.079 15.8125C219.417 16.7859 219.357 17.6143 219.159 18.4945C218.284 18.3599 217.639 17.8732 216.824 17.1483Z" fill="white" stroke="#D6F3F1" stroke-miterlimit="10"/>
<path d="M279.126 17.283C278.301 17.7697 277.616 18.1839 276.871 18.6292C276.533 17.6558 276.573 16.8274 276.791 15.9575C277.655 16.0818 278.301 16.5892 279.126 17.2934V17.283Z" fill="white" stroke="#D6F3F1" stroke-miterlimit="10"/>
<path d="M99.2539 71.8769V69.2466C100.208 69.3708 100.843 69.8886 101.529 70.4582C100.982 71.2245 100.227 71.5455 99.2539 71.8769Z" fill="white" stroke="#D6F3F1" stroke-miterlimit="10"/>
<path d="M130.405 285.208C129.61 284.732 128.925 284.328 128.17 283.872C128.835 283.085 129.561 282.744 130.375 282.454C130.703 283.313 130.633 284.131 130.405 285.208Z" fill="white" stroke="#D6F3F1" stroke-miterlimit="10"/>
<path d="M190.412 283.831C189.587 284.328 188.902 284.742 188.147 285.187C187.819 284.214 187.839 283.396 188.077 282.516C188.932 282.619 189.567 283.137 190.412 283.831Z" fill="white" stroke="#D6F3F1" stroke-miterlimit="10"/>
<path d="M216.973 283.603C217.648 283.199 218.314 282.806 219.069 282.36C219.407 283.344 219.387 284.183 219.089 285.187C218.334 284.742 217.648 284.328 216.953 283.924C216.953 283.82 216.963 283.717 216.973 283.603Z" fill="white" stroke="#D6F3F1" stroke-miterlimit="10"/>
<path d="M279.126 283.831C278.312 284.318 277.626 284.732 276.871 285.187C276.554 284.214 276.564 283.396 276.812 282.505C277.696 282.63 278.332 283.147 279.136 283.831H279.126Z" fill="white" stroke="#D6F3F1" stroke-miterlimit="10"/>
<path d="M10.6484 69.0913C11.443 69.5573 12.1284 69.9715 12.8933 70.4168C12.2476 71.2038 11.5324 71.5559 10.6881 71.8355C10.3206 70.9656 10.4398 70.1268 10.6484 69.0913Z" fill="white" stroke="#D6F3F1" stroke-miterlimit="10"/>
<path d="M41.6599 71.9594C40.8851 71.5038 40.2196 71.1103 39.4746 70.665C40.0805 69.8366 40.8355 69.5052 41.6798 69.2256C41.9579 70.0954 41.948 70.9135 41.6599 71.9594Z" fill="white" stroke="#D6F3F1" stroke-miterlimit="10"/>
<path d="M130.524 69.319V71.8043C129.55 71.649 128.875 71.183 128.14 70.4374C128.914 69.9714 129.6 69.5572 130.285 69.1533L130.524 69.319Z" fill="white" stroke="#D6F3F1" stroke-miterlimit="10"/>
<path d="M190.243 70.6962C189.577 71.1 188.902 71.4936 188.147 71.9388C187.799 70.9551 187.829 70.1163 188.127 69.1118C188.882 69.5571 189.567 69.961 190.262 70.3752C190.262 70.4787 190.252 70.5823 190.243 70.6962Z" fill="white" stroke="#D6F3F1" stroke-miterlimit="10"/>
<path d="M216.973 70.3545C217.668 69.9506 218.363 69.5571 219.228 69.0601V72.0217C218.344 71.5039 217.658 71.0897 216.963 70.6859C216.963 70.5719 216.963 70.4684 216.963 70.3545H216.973Z" fill="white" stroke="#D6F3F1" stroke-miterlimit="10"/>
<path d="M278.977 124.006C278.281 124.41 277.586 124.814 276.712 125.331V122.37C277.586 122.877 278.281 123.281 278.977 123.685C278.977 123.799 278.977 123.902 278.977 124.016V124.006Z" fill="white" stroke="#D6F3F1" stroke-miterlimit="10"/>
<path d="M219.228 125.238C218.682 125 218.324 124.876 218.006 124.679C217.658 124.472 217.341 124.192 216.953 123.913C217.539 123.157 218.284 122.794 219.238 122.515V125.238H219.228Z" fill="white" stroke="#D6F3F1" stroke-miterlimit="10"/>
<path d="M10.5391 178.506V175.886C11.5125 176 12.1483 176.539 12.8436 177.098C12.2377 177.823 11.5225 178.175 10.5391 178.496V178.506Z" fill="white" stroke="#D6F3F1" stroke-miterlimit="10"/>
<path d="M39.3857 177.077C40.2003 176.59 40.8956 176.186 41.7797 175.658V178.433C40.8459 178.288 40.1903 177.802 39.3857 177.077Z" fill="white" stroke="#D6F3F1" stroke-miterlimit="10"/>
<path d="M128.189 177.025C128.925 176.59 129.6 176.186 130.335 175.751C130.732 176.725 130.623 177.564 130.444 178.454C129.55 178.195 128.815 177.833 128.189 177.025Z" fill="white" stroke="#D6F3F1" stroke-miterlimit="10"/>
<path d="M190.421 177.212C189.577 177.719 188.902 178.113 188.177 178.548C187.779 177.616 187.888 176.787 188.047 175.886C188.951 175.99 189.587 176.528 190.421 177.212Z" fill="white" stroke="#D6F3F1" stroke-miterlimit="10"/>
<path d="M219.228 175.824V178.62C218.364 178.123 217.668 177.719 216.894 177.274C217.539 176.456 218.274 176.093 219.228 175.824Z" fill="white" stroke="#D6F3F1" stroke-miterlimit="10"/>
<path d="M278.977 177.315C278.281 177.719 277.586 178.123 276.712 178.641V175.679C277.586 176.187 278.281 176.59 278.977 176.994C278.977 177.108 278.977 177.212 278.977 177.326V177.315Z" fill="white" stroke="#D6F3F1" stroke-miterlimit="10"/>
<path d="M190.402 123.902C189.587 124.389 188.902 124.803 188.147 125.259C187.829 124.285 187.839 123.467 188.087 122.577C188.961 122.701 189.607 123.219 190.402 123.902Z" fill="white" stroke="#D6F3F1" stroke-miterlimit="10"/>
<path d="M128.109 123.767C128.924 123.281 129.619 122.877 130.364 122.432C130.692 123.405 130.642 124.233 130.444 125.114C129.57 124.979 128.924 124.492 128.109 123.767Z" fill="white" stroke="#D6F3F1" stroke-miterlimit="10"/>
<path d="M99.2637 122.328C100.197 122.887 100.863 123.291 101.598 123.726C100.942 124.513 100.217 124.917 99.2637 125.155V122.328Z" fill="white" stroke="#D6F3F1" stroke-miterlimit="10"/>
<path d="M39.5246 123.664C40.2199 123.26 40.9152 122.867 41.7794 122.37V125.331C40.8954 124.814 40.21 124.399 39.5146 123.995C39.5146 123.882 39.5146 123.778 39.5146 123.664H39.5246Z" fill="white" stroke="#D6F3F1" stroke-miterlimit="10"/>
<path d="M10.5488 122.359C11.423 122.867 12.1183 123.271 12.8931 123.716C12.2375 124.513 11.5124 124.907 10.5488 125.155V122.359Z" fill="white" stroke="#D6F3F1" stroke-miterlimit="10"/>
<path d="M99.3926 175.731C100.167 176.187 100.843 176.58 101.578 177.015C101.002 177.864 100.217 178.154 99.4025 178.496C99.0946 177.605 99.1244 176.777 99.4025 175.731H99.3926Z" fill="white" stroke="#D6F3F1" stroke-miterlimit="10"/>
<path d="M10.5488 231.774V228.979C11.423 229.486 12.1183 229.9 12.8931 230.345C12.2276 231.143 11.5024 231.536 10.5488 231.774Z" fill="white" stroke="#D6F3F1" stroke-miterlimit="10"/>
<path d="M41.7795 231.971C40.8656 231.433 40.2001 231.029 39.4551 230.584C40.0809 229.776 40.8259 229.413 41.7795 229.134V231.971Z" fill="white" stroke="#D6F3F1" stroke-miterlimit="10"/>
<path d="M101.588 230.511C101.171 230.821 100.853 231.091 100.495 231.298C100.177 231.484 99.8198 231.608 99.4224 231.795C99.045 230.894 99.1642 230.055 99.343 229.165C100.247 229.382 100.942 229.817 101.588 230.511Z" fill="white" stroke="#D6F3F1" stroke-miterlimit="10"/>
<path d="M130.394 231.898C129.609 231.432 128.924 231.018 128.159 230.563C128.835 229.796 129.54 229.413 130.384 229.165C130.682 230.014 130.642 230.832 130.384 231.898H130.394Z" fill="white" stroke="#D6F3F1" stroke-miterlimit="10"/>
<path d="M187.978 231.846V229.175C188.931 229.32 189.577 229.817 190.252 230.397C189.716 231.173 188.931 231.463 187.978 231.846Z" fill="white" stroke="#D6F3F1" stroke-miterlimit="10"/>
<path d="M219.129 231.774C218.264 231.484 217.539 231.143 216.894 230.345C217.648 229.9 218.334 229.486 219.089 229.041C219.407 230.014 219.397 230.842 219.138 231.774H219.129Z" fill="white" stroke="#D6F3F1" stroke-miterlimit="10"/>
<path d="M279.116 230.532C278.301 231.018 277.606 231.433 276.871 231.868C276.523 230.894 276.593 230.066 276.782 229.186C277.656 229.32 278.301 229.807 279.116 230.521V230.532Z" fill="white" stroke="#D6F3F1" stroke-miterlimit="10"/>
<path d="M279.126 70.5926C278.311 71.0793 277.626 71.4935 276.881 71.9388C276.513 70.9757 276.603 70.1473 276.772 69.2671C277.685 69.3914 278.321 69.9195 279.126 70.5926Z" fill="white" stroke="#D6F3F1" stroke-miterlimit="10"/>
<path d="M10.5488 282.288C11.423 282.805 12.1183 283.209 12.8931 283.655C12.2375 284.473 11.4826 284.804 10.5488 285.125V282.277V282.288Z" fill="white" stroke="#D6F3F1" stroke-miterlimit="10"/>
<path d="M41.6507 285.187C40.8957 284.742 40.2103 284.328 39.4355 283.872C40.111 283.106 40.8163 282.733 41.6705 282.464C41.9785 283.344 41.9487 284.183 41.6507 285.187Z" fill="white" stroke="#D6F3F1" stroke-miterlimit="10"/>
<path d="M99.4122 285.063C99.0844 283.872 99.0844 283.841 99.3725 282.505C100.207 282.65 100.862 283.127 101.538 283.727C100.972 284.463 100.237 284.825 99.4122 285.063Z" fill="white" stroke="#D6F3F1" stroke-miterlimit="10"/>
<path d="M86.1517 42.3121V45.4187C85.2477 44.8699 84.5226 44.4453 83.5889 43.8758C84.5127 43.3166 85.2179 42.8817 86.1517 42.3018V42.3121ZM85.5755 44.2589C85.4861 43.9483 85.4365 43.7722 85.3868 43.6065C85.2577 43.679 85.1385 43.7619 84.9299 43.8861C85.1583 44.0104 85.2875 44.0932 85.5755 44.2589Z" fill="white" stroke="#D6F3F1" stroke-miterlimit="10"/>
<path d="M145.94 44.0414C145.245 44.4556 144.549 44.8802 143.795 45.3358C143.417 44.3314 143.487 43.4512 143.745 42.4053C144.52 42.8713 145.245 43.2958 145.96 43.7204C145.96 43.824 145.95 43.9275 145.94 44.0311V44.0414ZM144.927 43.855C144.291 43.5133 144.182 43.6479 144.311 44.2071C144.49 44.1036 144.629 44.0207 144.927 43.855Z" fill="white" stroke="#D6F3F1" stroke-miterlimit="10"/>
<path d="M174.866 42.3121V45.4187C173.962 44.8699 173.236 44.4453 172.303 43.8758C173.217 43.3166 173.932 42.8817 174.866 42.3018V42.3121ZM174.289 44.2589C174.2 43.9379 174.15 43.7722 174.101 43.6065C173.972 43.679 173.852 43.7619 173.644 43.8861C173.872 44.0104 174.001 44.0932 174.289 44.2589Z" fill="white" stroke="#D6F3F1" stroke-miterlimit="10"/>
<path d="M232.35 42.3223C233.273 42.8711 233.959 43.2957 234.734 43.7513C234.088 44.6005 233.313 44.9422 232.35 45.2839V42.3223ZM233.174 43.5856C233.105 43.6063 233.045 43.627 232.975 43.6478C233.025 43.8134 233.075 43.9791 233.124 44.1345C233.254 44.0516 233.383 43.9791 233.552 43.8652C233.383 43.741 233.273 43.6581 233.174 43.5856Z" fill="white" stroke="#D6F3F1" stroke-miterlimit="10"/>
<path d="M232.34 148.952C233.234 149.48 233.959 149.904 234.744 150.37C234.058 151.199 233.313 151.603 232.34 151.862V148.952ZM232.995 150.898C233.254 150.712 233.383 150.619 233.522 150.526C233.224 150.305 233.048 150.429 232.995 150.898Z" fill="white" stroke="#D6F3F1" stroke-miterlimit="10"/>
<path d="M174.866 152.048C173.952 151.489 173.237 151.054 172.313 150.495C173.237 149.936 173.952 149.501 174.866 148.952V152.048ZM174.191 150.143C174.002 150.288 173.863 150.381 173.674 150.526C174.241 150.909 174.29 150.702 174.191 150.143Z" fill="white" stroke="#D6F3F1" stroke-miterlimit="10"/>
<path d="M172.551 203.649C173.246 203.235 173.942 202.81 174.706 202.354C175.074 203.359 175.004 204.239 174.756 205.285C173.981 204.819 173.256 204.395 172.541 203.97C172.541 203.866 172.551 203.763 172.561 203.649H172.551ZM173.574 203.825C174.2 204.177 174.309 204.042 174.18 203.473C174.001 203.576 173.862 203.659 173.574 203.825Z" fill="white" stroke="#D6F3F1" stroke-miterlimit="10"/>
<path d="M232.479 202.344C233.254 202.81 233.979 203.245 234.913 203.804C233.999 204.364 233.284 204.798 232.509 205.275C232.161 204.25 232.191 203.38 232.479 202.344ZM232.986 204.219C233.244 204.032 233.373 203.939 233.512 203.846C233.214 203.625 233.039 203.749 232.986 204.219Z" fill="white" stroke="#D6F3F1" stroke-miterlimit="10"/>
<path d="M263.6 202.386V205.14C262.626 204.964 261.951 204.478 261.266 203.835C261.862 203.08 262.646 202.727 263.6 202.386ZM263.014 204.188C262.924 203.877 262.875 203.701 262.825 203.535C262.696 203.608 262.567 203.691 262.368 203.815C262.597 203.939 262.726 204.022 263.014 204.188Z" fill="white" stroke="#D6F3F1" stroke-miterlimit="10"/>
<path d="M174.895 95.922V98.5109C173.882 98.3659 173.207 97.8274 172.422 97.1129C173.226 96.6262 173.942 96.1913 174.657 95.7563C174.736 95.8081 174.816 95.8703 174.885 95.922H174.895ZM173.654 97.1957C173.862 97.2993 174.021 97.3821 174.269 97.5168C174.23 97.2268 174.21 97.0715 174.18 96.8126C173.971 96.9679 173.842 97.0611 173.644 97.1957H173.654Z" fill="white" stroke="#D6F3F1" stroke-miterlimit="10"/>
<path d="M146.04 150.588C145.255 151.054 144.54 151.489 143.636 152.038V149.148C144.609 149.345 145.324 149.811 146.04 150.588ZM144.887 150.495C144.262 150.08 144.212 150.298 144.311 150.826C144.5 150.722 144.639 150.64 144.887 150.495Z" fill="white" stroke="#D6F3F1" stroke-miterlimit="10"/>
<path d="M145.95 97.3512C145.234 97.7758 144.509 98.2004 143.615 98.7181V95.6426C144.519 96.1707 145.234 96.6056 145.959 97.0302C145.959 97.1337 145.959 97.2477 145.959 97.3512H145.95ZM144.45 96.8956C144.38 96.9163 144.32 96.937 144.251 96.9577C144.301 97.1234 144.35 97.2891 144.4 97.4444C144.529 97.3616 144.658 97.2891 144.827 97.1752C144.658 97.0509 144.549 96.9681 144.45 96.8956Z" fill="white" stroke="#D6F3F1" stroke-miterlimit="10"/>
<path d="M83.748 97.082C84.5228 96.616 85.248 96.1811 86.1519 95.6426V98.5317C85.1784 98.3246 84.4533 97.869 83.748 97.082ZM85.4665 96.8334C85.2778 96.9784 85.1387 97.0716 84.95 97.2166C85.5162 97.5997 85.5658 97.3926 85.4665 96.8334Z" fill="white" stroke="#D6F3F1" stroke-miterlimit="10"/>
<path d="M54.9014 95.6426C55.7954 96.1707 56.5205 96.5953 57.3152 97.0613C56.6397 97.9001 55.8649 98.2625 54.9014 98.5939V95.6529V95.6426ZM55.7358 96.8852C55.6662 96.9059 55.5967 96.9163 55.5371 96.937C55.5868 97.1027 55.6364 97.2684 55.6861 97.4444C55.8152 97.3616 55.9444 97.2891 56.1132 97.1752C55.9444 97.0509 55.8351 96.9681 55.7358 96.8956V96.8852Z" fill="white" stroke="#D6F3F1" stroke-miterlimit="10"/>
<path d="M57.2155 44.0414C56.5201 44.4556 55.8248 44.8802 55.0699 45.3358C54.7023 44.3314 54.752 43.4512 55.0202 42.4053C55.795 42.8713 56.5201 43.2958 57.2353 43.7308C57.2353 43.8343 57.2155 43.9379 57.2055 44.0414H57.2155ZM55.5963 44.2175C55.7851 44.0828 55.9142 43.9793 56.1427 43.8136C55.5765 43.5029 55.4573 43.6272 55.5963 44.2175Z" fill="white" stroke="#D6F3F1" stroke-miterlimit="10"/>
<path d="M146.04 203.908C145.255 204.374 144.54 204.809 143.626 205.358V202.469C144.599 202.676 145.315 203.131 146.04 203.918V203.908ZM144.907 203.753C144.629 203.691 144.46 203.649 144.301 203.608V204.188C144.54 204.012 144.659 203.918 144.907 203.742V203.753Z" fill="white" stroke="#D6F3F1" stroke-miterlimit="10"/>
<path d="M86.1711 202.541V205.13C85.1679 204.975 84.4725 204.478 83.7275 203.711C84.5023 203.245 85.2175 202.8 85.9327 202.365C86.0122 202.417 86.0917 202.479 86.1711 202.531V202.541ZM85.5751 204.198C85.4758 203.877 85.4261 203.711 85.3864 203.546C85.2573 203.629 85.1281 203.701 84.9295 203.825C85.1579 203.95 85.2871 204.032 85.5851 204.198H85.5751Z" fill="white" stroke="#D6F3F1" stroke-miterlimit="10"/>
<path d="M57.3152 203.908C56.5304 204.374 55.8152 204.809 54.9014 205.358V202.469C55.8748 202.676 56.59 203.131 57.3152 203.918V203.908ZM56.1828 203.753C55.9046 203.691 55.7457 203.649 55.5768 203.608V204.188C55.8152 204.012 55.9344 203.918 56.1828 203.742V203.753Z" fill="white" stroke="#D6F3F1" stroke-miterlimit="10"/>
<path d="M261.187 97.0816C261.961 96.6156 262.686 96.1807 263.59 95.6318V98.521C262.617 98.3242 261.902 97.8686 261.187 97.0816ZM262.915 96.8331C262.726 96.978 262.587 97.0712 262.398 97.2162C262.965 97.5994 263.014 97.3923 262.915 96.8331Z" fill="white" stroke="#D6F3F1" stroke-miterlimit="10"/>
<path d="M232.469 95.7148C233.244 96.1808 233.969 96.6054 234.734 97.061C234.088 97.8791 233.333 98.2312 232.479 98.5522C232.141 97.6409 232.201 96.7607 232.459 95.7148H232.469ZM233.035 97.5374C233.224 97.3924 233.363 97.2992 233.552 97.1542C232.985 96.7711 232.926 96.9782 233.035 97.5374Z" fill="white" stroke="#D6F3F1" stroke-miterlimit="10"/>
<path d="M54.9111 152.058V148.952C55.8151 149.5 56.5402 149.925 57.4739 150.484C56.5601 151.043 55.8449 151.489 54.9111 152.058ZM56.1826 150.443C55.9144 150.37 55.7455 150.329 55.5866 150.288V150.867C55.8151 150.702 55.9442 150.609 56.1826 150.432V150.443Z" fill="white" stroke="#D6F3F1" stroke-miterlimit="10"/>
<path d="M263.6 152.038C262.706 151.51 261.981 151.085 261.246 150.65C262.001 149.729 262.349 149.511 263.6 149.159V152.028V152.038ZM262.369 150.516C262.587 150.63 262.736 150.702 262.994 150.837C262.955 150.547 262.935 150.391 262.905 150.133C262.696 150.288 262.567 150.381 262.369 150.516Z" fill="white" stroke="#D6F3F1" stroke-miterlimit="10"/>
<path d="M263.6 45.4396C262.666 44.87 261.971 44.4558 261.206 43.9898C261.872 43.1614 262.627 42.7679 263.6 42.4883V45.4292V45.4396ZM262.905 43.5031C262.696 43.6584 262.567 43.7516 262.368 43.8863C262.587 44.0002 262.736 44.0727 262.984 44.2073C262.944 43.9173 262.925 43.762 262.895 43.5031H262.905Z" fill="white" stroke="#D6F3F1" stroke-miterlimit="10"/>
<path d="M86.1517 148.931V152.038C85.2477 151.489 84.5226 151.064 83.5889 150.495C84.5127 149.936 85.2179 149.501 86.1517 148.921V148.931ZM84.9001 150.495C85.5259 150.909 85.5755 150.692 85.4762 150.164C85.2875 150.267 85.1484 150.35 84.9001 150.495Z" fill="white" stroke="#D6F3F1" stroke-miterlimit="10"/>
<path d="M54.9014 258.522V255.789C55.8649 255.954 56.5404 256.462 57.2357 257.083C56.6298 257.839 55.8649 258.201 54.9014 258.533V258.522ZM56.1629 257.124C55.5371 256.71 55.4874 256.928 55.5868 257.456C55.7755 257.352 55.9146 257.269 56.1629 257.124Z" fill="white" stroke="#D6F3F1" stroke-miterlimit="10"/>
<path d="M83.8366 256.948C84.5319 256.534 85.2273 256.109 85.9723 255.664C86.3497 256.669 86.2603 257.549 86.0319 258.595C85.2372 258.118 84.522 257.694 83.7969 257.259L83.8267 256.948H83.8366ZM85.4557 256.741C85.2471 256.896 85.118 256.99 84.9193 257.124C85.1279 257.238 85.2869 257.311 85.5352 257.445C85.4955 257.155 85.4756 257 85.4458 256.741H85.4557Z" fill="white" stroke="#D6F3F1" stroke-miterlimit="10"/>
<path d="M143.636 255.571C144.55 256.13 145.265 256.565 146.189 257.124C145.265 257.683 144.55 258.118 143.636 258.677V255.581V255.571ZM144.271 257.528C144.53 257.342 144.659 257.248 144.798 257.155C144.5 256.934 144.324 257.059 144.271 257.528Z" fill="white" stroke="#D6F3F1" stroke-miterlimit="10"/>
<path d="M174.896 255.85V258.439C173.892 258.274 173.197 257.787 172.452 257.021C173.227 256.555 173.942 256.109 174.657 255.674C174.737 255.726 174.816 255.788 174.896 255.84V255.85ZM174.19 256.762C174.002 256.907 173.863 257 173.674 257.145C174.24 257.528 174.29 257.321 174.19 256.762Z" fill="white" stroke="#D6F3F1" stroke-miterlimit="10"/>
<path d="M232.489 255.654C233.264 256.12 233.979 256.555 234.923 257.114C233.999 257.673 233.294 258.108 232.519 258.584C232.181 257.559 232.201 256.689 232.499 255.654H232.489ZM232.996 257.528C233.254 257.342 233.383 257.249 233.522 257.155C233.224 256.934 233.049 257.059 232.996 257.528Z" fill="white" stroke="#D6F3F1" stroke-miterlimit="10"/>
<path d="M263.61 255.851V258.439C262.607 258.315 261.931 257.766 261.146 257.052C261.941 256.565 262.656 256.13 263.372 255.695C263.451 255.747 263.53 255.799 263.61 255.861V255.851ZM262.368 257.135C262.577 257.238 262.736 257.321 262.984 257.456C262.944 257.166 262.925 257.01 262.895 256.752C262.686 256.907 262.557 256.99 262.358 257.135H262.368Z" fill="white" stroke="#D6F3F1" stroke-miterlimit="10"/>
</g>
<defs>
<clipPath id="clip0_767_23741">
<rect width="280" height="301" fill="white"/>
</clipPath>
</defs>
</svg>
