<svg width="17" height="18" viewBox="0 0 17 18" fill="none" xmlns="http://www.w3.org/2000/svg">
<g id="vuesax/twotone/message-notif">
<g id="message-notif">
<path id="Vector" d="M15.0877 7.76042V9.88542C15.0877 12.7187 13.7544 14.1354 11.0877 14.1354H10.7544C10.5477 14.1354 10.3477 14.2417 10.2211 14.4187L9.22106 15.8354C8.78106 16.4587 8.06106 16.4587 7.62106 15.8354L6.62106 14.4187C6.51439 14.2629 6.26773 14.1354 6.08773 14.1354H5.75439C3.08773 14.1354 1.75439 13.4271 1.75439 9.88542V6.34375C1.75439 3.51042 3.08773 2.09375 5.75439 2.09375H9.75439" stroke="#064247" strokeWidth="1.5" stroke-miterlimit="10" strokeLinecap="round" strokeLinejoin="round"/>
<path id="Vector_2" opacity="0.9" d="M13.4211 5.63542C14.3415 5.63542 15.0877 4.84259 15.0877 3.86458C15.0877 2.88658 14.3415 2.09375 13.4211 2.09375C12.5006 2.09375 11.7544 2.88658 11.7544 3.86458C11.7544 4.84259 12.5006 5.63542 13.4211 5.63542Z" stroke="#0D0630" strokeWidth="1.5" strokeLinecap="round" strokeLinejoin="round"/>
<path id="Vector_3" opacity="0.9" d="M11.085 8.46842H11.091" stroke="#0D0630" strokeWidth="2" strokeLinecap="round" strokeLinejoin="round"/>
<path id="Vector_4" opacity="0.9" d="M8.41805 8.46842H8.42404" stroke="#0D0630" strokeWidth="2" strokeLinecap="round" strokeLinejoin="round"/>
<path id="Vector_5" opacity="0.9" d="M5.75057 8.46842H5.75656" stroke="#0D0630" strokeWidth="2" strokeLinecap="round" strokeLinejoin="round"/>
</g>
</g>
</svg>
