<svg width="17" height="16" viewBox="0 0 17 16" fill="none" xmlns="http://www.w3.org/2000/svg">
<rect width="17" height="16" fill="#1E1E1E"/>
<g id="Frame 26086488">
<rect width="1440" height="991" transform="translate(-900 -269)" fill="white"/>
<g id="Group 92">
<g id="Group 91">
<g id="Group 66">
<g id="Group 183">
<circle id="Ellipse 33" cx="8.03743" cy="7.50911" r="17.7562" fill="#288E87"/>
</g>
</g>
</g>
</g>
<g id="vuesax/twotone/shield-tick">
<g id="vuesax/twotone/shield-tick_2">
<g id="shield-tick">
<path id="Vector" d="M7.16873 1.48703L3.84206 2.74036C3.0754 3.02703 2.44873 3.9337 2.44873 4.74703V9.70036C2.44873 10.487 2.96873 11.5204 3.60206 11.9937L6.46873 14.1337C7.40873 14.8404 8.9554 14.8404 9.8954 14.1337L12.7621 11.9937C13.3954 11.5204 13.9154 10.487 13.9154 9.70036V4.74703C13.9154 3.92703 13.2887 3.02036 12.5221 2.7337L9.1954 1.48703C8.62873 1.28036 7.72206 1.28036 7.16873 1.48703Z" stroke="white" stroke-width="1.5" stroke-linecap="round" stroke-linejoin="round"/>
<path id="Vector_2" d="M6.20874 7.91345L7.28207 8.98678L10.1487 6.12012" stroke="white" stroke-width="1.5" stroke-linecap="round" stroke-linejoin="round"/>
</g>
</g>
</g>
</g>
</svg>
