<svg width="24" height="25" viewBox="0 0 24 25" fill="none" xmlns="http://www.w3.org/2000/svg">
<path d="M12 12.5C14.7614 12.5 17 10.2614 17 7.5C17 4.73858 14.7614 2.5 12 2.5C9.23858 2.5 7 4.73858 7 7.5C7 10.2614 9.23858 12.5 12 12.5Z" stroke="#288E87" strokeWidth="1.5" strokeLinecap="round" strokeLinejoin="round"/>
<path d="M3.41003 22.5C3.41003 18.63 7.26003 15.5 12 15.5C12.96 15.5 13.89 15.63 14.76 15.87" stroke="#288E87" strokeWidth="1.5" strokeLinecap="round" strokeLinejoin="round"/>
<path d="M22 18.5C22 18.82 21.96 19.13 21.88 19.43C21.79 19.83 21.63 20.22 21.42 20.56C20.73 21.72 19.46 22.5 18 22.5C16.97 22.5 16.04 22.11 15.34 21.47C15.04 21.21 14.78 20.9 14.58 20.56C14.21 19.96 14 19.25 14 18.5C14 17.42 14.43 16.43 15.13 15.71C15.86 14.96 16.88 14.5 18 14.5C19.18 14.5 20.25 15.01 20.97 15.83C21.61 16.54 22 17.48 22 18.5Z" stroke="#288E87" strokeWidth="1.5" stroke-miterlimit="10" strokeLinecap="round" strokeLinejoin="round"/>
<path d="M19.49 18.48H16.51" stroke="#288E87" strokeWidth="1.5" stroke-miterlimit="10" strokeLinecap="round" strokeLinejoin="round"/>
<path d="M18.0002 17.02V20.01" stroke="#288E87" strokeWidth="1.5" stroke-miterlimit="10" strokeLinecap="round" strokeLinejoin="round"/>
</svg>
